<?xml version="1.0" standalone="no"?>
<!DOCTYPE svg PUBLIC "-//W3C//DTD SVG 20010904//EN"
 "http://www.w3.org/TR/2001/REC-SVG-20010904/DTD/svg10.dtd">
<svg version="1.0" xmlns="http://www.w3.org/2000/svg"
 width="3732.000000pt" height="3732.000000pt" viewBox="0 0 3732.000000 3732.000000"
 preserveAspectRatio="xMidYMid meet">
<metadata>
Created by potrace 1.15, written by Peter Selinger 2001-2017
</metadata>
<g transform="translate(0.000000,3732.000000) scale(0.100000,-0.100000)"
fill="#000000" stroke="none">
<path d="M21445 35306 c-26 -9 -114 -16 -248 -19 -151 -4 -213 -9 -224 -19
-35 -28 -73 -102 -73 -140 0 -45 22 -104 51 -134 14 -15 19 -32 17 -55 l-3
-34 -152 -5 c-97 -3 -156 -9 -164 -17 -14 -14 -5 -56 17 -78 15 -15 18 -15 36
2 19 17 49 18 409 18 l390 0 5 22 c3 12 4 30 2 40 -3 17 -15 18 -173 14 -195
-4 -253 3 -297 33 -56 38 -69 66 -71 145 -2 70 -1 74 31 102 l32 29 241 0 240
0 -3 52 c-2 28 -7 53 -13 54 -5 2 -28 -3 -50 -10z"/>
<path d="M20262 35023 c-25 -21 -75 -112 -92 -168 -16 -51 -66 -105 -98 -105
-13 0 -20 -4 -17 -10 8 -12 66 -13 97 -1 26 10 88 99 88 127 1 48 67 154 97
154 7 0 13 5 13 10 0 17 -66 11 -88 -7z"/>
<path d="M20920 34627 c0 -50 -25 -67 -105 -72 -37 -2 -69 -5 -71 -7 -2 -2 3
-14 11 -25 10 -14 31 -23 65 -28 45 -6 52 -10 72 -48 29 -53 56 -56 72 -7 l11
35 240 5 c132 3 248 9 258 14 20 10 47 67 47 101 0 13 -9 33 -19 46 -20 25
-25 21 -33 -25 -2 -10 -16 -28 -31 -40 -26 -19 -44 -21 -236 -24 -236 -5 -241
-3 -241 69 0 32 -3 39 -20 39 -16 0 -20 -7 -20 -33z"/>
<path d="M20119 34600 c-68 -25 -91 -45 -111 -92 -21 -53 -23 -99 -2 -50 8 17
20 32 27 32 8 0 24 11 37 25 23 25 73 34 84 17 3 -5 6 -64 8 -131 2 -98 -1
-124 -12 -132 -18 -11 -59 -3 -81 17 -17 15 -39 19 -39 7 0 -5 18 -23 40 -41
38 -32 43 -33 137 -36 95 -3 163 11 163 32 0 5 11 14 24 20 27 12 56 86 56
141 -1 20 -9 61 -20 91 -16 47 -24 58 -57 72 -51 23 -56 4 -10 -36 66 -58 75
-114 29 -187 -36 -56 -49 -66 -107 -84 -87 -26 -95 -8 -95 200 0 156 -3 161
-71 135z"/>
<path d="M22910 34465 c-7 -8 -18 -15 -24 -15 -6 0 -27 -16 -46 -35 -19 -19
-40 -35 -47 -35 -7 0 -27 -13 -45 -28 -40 -34 -126 -88 -154 -96 -18 -6 -70
25 -135 81 -7 7 -38 31 -68 53 -66 48 -81 42 -81 -34 0 -68 10 -77 79 -70 48
5 60 2 84 -18 70 -57 4 -158 -104 -158 -40 0 -61 -35 -57 -97 4 -58 26 -68 66
-30 15 14 41 32 57 40 17 8 43 29 59 46 17 17 35 31 42 31 6 0 23 9 37 20 14
11 34 20 46 20 24 0 85 -34 126 -70 17 -14 50 -39 74 -56 24 -16 59 -39 78
-52 41 -27 53 -22 53 23 0 35 -2 37 -67 50 -17 3 -37 13 -44 21 -7 8 -41 31
-76 50 -57 32 -63 39 -63 68 0 23 9 40 33 63 38 36 117 83 140 83 8 0 30 12
47 26 28 24 31 31 28 77 -3 53 -16 68 -38 42z"/>
<path d="M20948 34223 c-1 -5 -2 -28 -3 -53 -1 -25 -9 -63 -18 -85 -36 -90
-12 -210 54 -270 72 -65 118 -79 249 -79 102 -1 120 2 158 23 101 56 159 182
120 266 -17 37 -26 31 -34 -22 -3 -27 -20 -69 -36 -95 -42 -65 -116 -93 -243
-92 -76 1 -99 5 -147 28 -65 31 -67 33 -97 103 -19 47 -20 55 -7 75 8 13 17
38 21 56 8 38 50 69 105 77 19 3 60 10 91 16 62 11 180 -8 244 -38 31 -15 35
-15 63 6 25 18 44 21 117 21 143 0 175 -33 162 -170 -3 -39 -12 -66 -26 -81
-12 -13 -28 -32 -36 -41 -8 -10 -26 -18 -39 -18 -24 0 -41 -23 -30 -41 8 -13
33 -11 92 6 46 14 52 19 61 53 19 69 24 167 12 223 -9 41 -22 64 -53 97 l-42
42 -368 0 c-202 0 -369 -3 -370 -7z"/>
<path d="M20375 34051 c-6 -5 -84 -11 -173 -13 l-164 -3 -24 -28 c-18 -22 -24
-40 -24 -78 0 -27 5 -49 10 -49 6 0 10 11 10 25 0 15 11 37 28 52 61 57 65 58
237 58 153 0 160 1 160 20 0 22 -43 33 -60 16z"/>
<path d="M20034 33775 c-14 -11 -49 -14 -136 -15 l-118 0 0 -30 c0 -39 24 -52
76 -39 21 5 161 8 309 7 l270 -2 0 29 0 30 -172 5 c-118 3 -176 9 -185 18 -15
15 -20 15 -44 -3z"/>
<path d="M22870 33760 c-30 -17 -56 -19 -200 -20 -163 0 -243 -11 -309 -43
-38 -18 -72 -115 -66 -187 9 -108 34 -181 76 -222 26 -26 48 -38 67 -38 54 0
72 52 25 71 -73 29 -93 40 -93 50 0 7 -12 23 -26 36 -24 22 -26 29 -21 78 9
89 70 152 156 162 43 5 50 3 65 -18 9 -13 16 -33 16 -44 0 -44 51 -216 75
-251 13 -19 27 -44 30 -54 4 -11 28 -27 62 -40 50 -18 63 -20 105 -10 63 16
93 40 114 95 12 33 15 60 10 101 -11 92 -40 128 -42 51 -2 -85 -13 -115 -52
-142 -43 -29 -91 -32 -141 -7 -40 20 -80 83 -81 127 0 17 -9 47 -20 68 -22 40
-29 95 -15 117 12 20 198 9 220 -14 9 -9 25 -21 36 -26 16 -9 21 -6 31 17 6
15 23 40 37 55 22 25 23 32 15 65 -11 44 -26 49 -74 23z"/>
<path d="M21250 33560 c-185 -6 -198 -8 -245 -33 -57 -29 -76 -48 -94 -94 -16
-39 -9 -85 19 -130 30 -49 44 -43 36 17 -8 62 10 109 55 141 33 23 39 24 259
26 l225 1 0 39 c0 45 23 42 -255 33z"/>
<path d="M20406 33473 c14 -34 16 -94 4 -124 -7 -16 -35 -49 -62 -74 -48 -43
-49 -44 -131 -47 -83 -3 -143 10 -158 34 -4 7 -12 9 -16 4 -11 -10 40 -47 97
-69 73 -28 133 -24 208 15 58 30 66 38 83 83 21 55 24 96 10 123 -6 9 -12 29
-16 45 -3 15 -10 27 -16 27 -7 0 -8 -7 -3 -17z"/>
<path d="M20980 33221 c0 -32 -12 -52 -36 -62 -16 -5 -24 -16 -24 -31 1 -74
31 -91 107 -58 47 20 62 21 224 16 96 -3 192 -6 214 -8 l40 -3 0 50 c0 49 0
50 -30 48 -126 -11 -294 -14 -350 -8 -59 6 -72 11 -102 41 -39 39 -43 41 -43
15z"/>
<path d="M22840 33053 c-23 -16 -63 -18 -422 -21 l-398 -3 -6 -24 c-3 -14 -2
-46 2 -72 9 -46 11 -48 44 -51 23 -2 57 7 95 25 l60 28 276 3 c234 3 282 1
320 -13 100 -37 112 -38 126 -19 16 23 17 136 1 152 -18 18 -70 15 -98 -5z"/>
<path d="M20416 33035 c-3 -13 -15 -29 -26 -35 -17 -9 -179 -10 -390 -1 -43 1
-150 -12 -150 -19 0 -10 26 -20 51 -20 31 0 76 -27 82 -50 7 -27 21 -25 41 5
l16 25 174 0 c160 0 175 2 200 21 19 15 26 30 26 54 0 41 -16 54 -24 20z"/>
<path d="M21032 32880 c-24 -11 -48 -25 -55 -32 -34 -37 -58 -82 -69 -127 -9
-42 -8 -59 7 -108 9 -32 28 -74 41 -94 13 -19 24 -39 24 -45 0 -17 112 -64
179 -75 131 -21 256 26 330 123 7 9 19 44 27 78 16 70 6 130 -31 190 -27 43
-100 110 -119 110 -30 0 -25 -19 12 -48 52 -42 96 -132 87 -181 -10 -61 -56
-141 -90 -158 -16 -9 -41 -24 -54 -34 -36 -29 -102 -25 -131 6 -13 14 -29 25
-35 25 -6 0 -21 -11 -33 -25 -12 -14 -27 -25 -33 -25 -11 0 -54 32 -104 76
-31 28 -43 116 -25 180 21 74 112 118 164 79 38 -29 47 -19 44 43 l-3 57 -45
3 c-28 1 -61 -5 -88 -18z"/>
<path d="M20118 32770 c-36 -11 -98 -59 -98 -76 0 -15 25 -9 50 12 8 7 27 15
41 19 43 11 50 -10 50 -151 0 -156 -6 -167 -72 -133 -27 13 -39 16 -32 7 7 -8
34 -25 60 -38 68 -35 162 -35 218 0 22 14 49 30 60 35 24 13 54 87 54 135 0
19 -9 53 -20 75 l-19 40 6 -47 c3 -25 3 -60 -1 -77 -10 -45 -61 -103 -113
-128 -97 -48 -105 -35 -112 171 -5 152 -6 161 -25 163 -11 1 -32 -2 -47 -7z"/>
<path d="M22478 32706 c-104 -22 -178 -121 -178 -239 0 -91 26 -163 77 -215
74 -73 102 -84 223 -86 117 -1 204 19 253 61 16 12 33 23 38 23 13 0 55 99 65
151 4 24 6 60 5 79 -2 38 -49 150 -62 150 -5 0 -23 13 -41 29 -34 29 -78 49
-78 34 0 -4 20 -30 45 -56 25 -27 45 -55 45 -62 0 -7 7 -18 15 -25 10 -8 15
-30 15 -64 0 -55 -36 -130 -82 -173 -25 -24 -149 -73 -183 -73 -42 0 -45 14
-45 236 0 117 -3 219 -6 228 -7 19 -28 19 -106 2z m60 -98 c16 -16 17 -334 2
-343 -6 -4 -34 -1 -63 5 -56 13 -118 66 -137 116 -40 103 46 232 156 233 16 1
35 -4 42 -11z"/>
<path d="M20013 32140 c-13 -11 -23 -25 -23 -30 0 -34 8 -35 228 -33 l217 1 3
24 c4 36 -16 49 -63 38 -71 -17 -204 -10 -315 16 -17 4 -32 -1 -47 -16z"/>
<path d="M20980 32126 c0 -8 -13 -24 -30 -36 -36 -25 -40 -66 -11 -101 l20
-24 44 23 c43 23 51 23 273 21 l229 -2 0 43 0 44 -217 -3 -217 -3 -26 26 c-28
28 -65 35 -65 12z"/>
<path d="M22888 32021 c-28 -18 -68 -63 -68 -77 0 -11 -98 -102 -125 -116 -13
-7 -51 -39 -84 -70 -80 -77 -98 -77 -131 2 -75 180 -267 226 -388 93 -23 -26
-47 -63 -53 -82 -15 -54 -28 -282 -22 -401 l6 -105 411 0 c226 0 434 -2 461
-5 l50 -5 0 65 c0 63 -1 65 -25 62 -74 -9 -340 -13 -370 -5 -35 9 -35 10 -38
68 -2 33 -1 69 2 81 7 26 169 194 188 194 7 0 27 13 43 28 17 15 58 45 93 67
88 54 112 85 112 145 0 82 -11 94 -62 61z m-566 -218 c52 -20 76 -44 112 -112
24 -46 28 -67 32 -169 3 -73 1 -123 -5 -132 -14 -21 -369 -22 -394 -1 -14 11
-17 34 -17 126 0 113 12 173 37 188 7 4 13 14 13 21 0 18 50 62 90 79 47 20
81 20 132 0z"/>
<path d="M20391 31875 c-13 -20 -34 -38 -46 -41 -13 -3 -84 -4 -160 -2 l-137
3 -24 30 -24 30 -22 -26 c-13 -15 -31 -29 -42 -33 -15 -5 -16 -9 -6 -21 7 -8
18 -15 25 -15 7 0 20 -10 29 -22 14 -21 16 -22 26 -5 25 41 62 48 237 46 153
-2 167 0 180 17 15 21 14 66 -2 71 -5 1 -21 -13 -34 -32z"/>
<path d="M20914 31790 c-8 -50 -25 -60 -103 -60 -34 0 -63 -5 -67 -11 -10 -18
37 -49 74 -49 32 0 41 -7 95 -69 31 -36 43 -34 52 9 4 20 14 32 28 35 12 3
114 6 227 7 228 3 250 8 284 67 15 26 17 40 10 70 -11 45 -29 46 -52 1 -31
-57 -45 -60 -274 -60 -195 0 -208 1 -218 19 -5 11 -10 33 -10 50 0 24 -4 31
-20 31 -15 0 -21 -9 -26 -40z"/>
<path d="M20218 31612 c-26 -2 -41 -10 -54 -30 -10 -15 -23 -31 -29 -37 -11
-10 -43 -88 -65 -157 -6 -21 -16 -40 -21 -44 -5 -3 -17 -23 -26 -45 -29 -74
-117 -109 -172 -69 -17 12 -29 15 -26 8 9 -23 91 -68 124 -68 32 0 111 38 111
53 0 5 9 20 20 34 11 14 20 36 20 49 0 13 11 35 25 50 14 15 25 35 25 45 0 32
50 113 87 142 57 42 96 37 150 -18 l43 -45 0 30 c0 20 -10 41 -32 64 -28 28
-41 34 -88 38 -30 2 -72 2 -92 0z"/>
<path d="M21231 31434 c-43 -12 -63 -25 -99 -66 -46 -50 -85 -127 -103 -203
-6 -22 -16 -43 -24 -47 -7 -5 -16 -23 -20 -41 -9 -42 -60 -121 -91 -142 -32
-21 -91 -23 -129 -4 -70 34 -103 168 -70 279 22 72 87 140 134 140 32 0 59 24
41 35 -18 11 -163 -5 -187 -21 -14 -8 -20 -20 -17 -29 4 -9 1 -36 -6 -62 -14
-59 -15 -259 0 -297 17 -46 92 -113 141 -126 72 -20 137 -1 198 57 28 27 51
55 51 63 1 8 14 40 30 70 17 30 30 62 30 70 0 8 7 28 15 43 8 15 17 43 21 62
3 20 24 53 49 80 47 52 93 69 163 59 35 -5 48 -14 81 -55 31 -39 40 -59 45
-106 8 -76 -7 -167 -33 -195 -12 -12 -21 -27 -21 -33 0 -16 -50 -60 -85 -74
-16 -6 -41 -21 -55 -31 -21 -17 -23 -21 -10 -30 43 -28 120 -2 161 55 71 98
98 208 80 325 -19 121 -76 197 -168 225 -56 17 -53 17 -122 -1z"/>
<path d="M18637 31003 c-3 -5 -7 -110 -8 -233 -1 -173 1 -225 11 -228 7 -3 15
0 19 6 12 20 7 455 -6 459 -6 2 -14 0 -16 -4z"/>
<path d="M17311 30351 c-11 -7 -11 -20 -2 -73 6 -38 11 -186 11 -360 0 -238
-3 -304 -16 -347 -22 -76 -17 -82 63 -79 66 3 68 4 66 28 0 14 -6 43 -12 65
-6 22 -11 88 -11 146 0 138 10 154 97 153 108 -2 152 -44 314 -291 65 -101 73
-106 160 -101 53 3 54 3 52 33 -1 21 -12 38 -35 55 -48 37 -136 128 -188 195
-25 32 -55 67 -67 78 -13 11 -23 24 -23 28 0 4 34 24 75 44 62 30 81 44 110
88 31 46 35 59 35 118 0 59 -4 73 -32 115 -18 27 -44 54 -58 60 -119 56 -108
54 -323 54 -111 0 -208 -4 -216 -9z m390 -59 c27 -10 60 -33 79 -56 31 -35 34
-44 34 -106 1 -78 -14 -106 -80 -152 -37 -26 -44 -27 -165 -28 -103 0 -129 3
-139 16 -16 18 -26 200 -16 269 6 40 12 49 39 60 46 20 191 18 248 -3z"/>
<path d="M18187 30087 c-29 -9 -36 -37 -13 -56 10 -9 14 -60 18 -224 4 -242
10 -263 84 -304 62 -36 188 -24 219 20 18 26 20 43 3 30 -27 -21 -92 -23 -135
-3 -74 33 -77 45 -83 295 -3 121 -8 225 -12 231 -11 17 -49 22 -81 11z"/>
<path d="M18550 30079 c-9 -15 -7 -25 9 -46 19 -24 21 -39 21 -197 -1 -129 -4
-177 -15 -196 -16 -29 -20 -70 -5 -70 5 0 12 -16 16 -35 9 -50 24 -59 74 -44
23 7 44 18 47 25 2 6 -4 29 -13 50 -15 33 -18 76 -21 278 -1 131 -5 241 -8
244 -3 3 -25 7 -50 8 -36 2 -47 -1 -55 -17z"/>
<path d="M19125 30093 c-11 -3 -32 -16 -46 -29 -14 -14 -42 -27 -61 -31 -32
-5 -38 -2 -59 26 -27 36 -64 41 -100 12 l-23 -18 22 -67 c19 -56 22 -89 22
-215 0 -81 -5 -174 -12 -205 -13 -68 -7 -76 62 -76 70 0 76 8 55 70 -24 73
-17 311 11 385 34 87 122 118 211 73 61 -30 66 -56 61 -313 l-3 -210 55 0 55
0 -3 210 c-5 249 -15 304 -68 354 -31 29 -43 34 -97 37 -34 1 -71 0 -82 -3z"/>
<path d="M19795 30082 c-22 -10 -46 -26 -54 -35 -14 -18 -48 -22 -67 -9 -6 4
-16 17 -23 30 -15 29 -69 30 -99 2 -27 -25 -26 -17 -1 -90 18 -54 20 -76 16
-242 -3 -101 -7 -196 -9 -213 -3 -30 -3 -30 52 -33 76 -3 88 6 66 52 -15 31
-17 62 -14 209 l3 172 33 47 c24 35 43 50 70 58 81 22 128 6 177 -60 24 -33
25 -38 25 -218 0 -157 -3 -188 -17 -213 -16 -26 -16 -31 -3 -39 22 -14 106
-12 118 3 5 7 6 21 1 32 -4 11 -8 110 -8 219 -1 220 -8 251 -70 310 -39 38
-135 47 -196 18z"/>
<path d="M20588 30080 c-42 -22 -46 -43 -18 -93 21 -37 23 -51 22 -227 -1
-105 -6 -199 -12 -215 -15 -39 2 -55 60 -55 61 0 76 16 54 59 -23 47 -17 351
9 398 18 34 23 73 8 73 -5 0 -18 15 -29 34 -24 41 -52 49 -94 26z"/>
<path d="M20834 30094 c-26 -6 -101 -71 -92 -79 3 -3 23 1 43 9 51 22 83 20
130 -7 61 -34 67 -65 62 -287 -3 -102 -8 -198 -12 -213 l-8 -28 64 3 c71 3 70
0 50 88 -6 25 -10 132 -11 238 l0 193 -38 40 c-36 39 -41 41 -102 44 -36 2
-75 1 -86 -1z"/>
<path d="M21440 30091 c-83 -18 -159 -85 -187 -166 -24 -67 -24 -211 0 -282
23 -66 84 -124 157 -148 47 -16 60 -16 104 -5 28 7 60 19 71 26 28 20 63 17
75 -5 15 -29 12 -146 -4 -186 -17 -41 -48 -62 -101 -70 -73 -12 -118 8 -171
75 -63 80 -79 80 -70 -2 4 -35 12 -68 17 -74 5 -6 28 -15 51 -18 23 -4 47 -11
54 -17 19 -15 124 -13 184 5 55 16 102 54 128 103 13 23 18 726 6 757 -9 23
-51 20 -57 -4 -8 -31 -35 -35 -82 -12 -50 24 -124 34 -175 23z m177 -83 c41
-40 54 -86 54 -193 1 -123 -14 -182 -59 -233 -35 -39 -41 -42 -88 -42 -62 0
-131 40 -168 97 -30 47 -42 154 -27 239 11 58 56 137 90 159 51 33 151 19 198
-27z"/>
<path d="M20256 30067 c-29 -24 -29 -24 -16 -71 7 -25 17 -49 21 -52 16 -9 10
-324 -6 -378 -20 -64 -10 -76 62 -76 59 0 93 13 93 35 0 8 -9 32 -21 54 -19
37 -21 57 -20 257 0 122 -5 226 -10 236 -14 26 -67 23 -103 -5z"/>
<path d="M15956 29975 c-17 -13 -17 -15 -2 -31 15 -15 17 -41 15 -223 -2 -196
-1 -206 17 -209 18 -3 19 5 16 206 -3 171 -1 210 10 220 8 6 46 14 85 18 65 6
72 5 112 -22 77 -51 105 -147 76 -269 -8 -38 -23 -77 -31 -86 -9 -10 -14 -25
-12 -34 5 -25 77 44 96 92 22 57 26 145 9 185 -9 18 -18 42 -21 54 -9 29 -56
72 -86 78 -14 2 -52 11 -85 20 -74 20 -173 20 -199 1z"/>
<path d="M17033 29863 c-37 -15 -42 -36 -17 -72 12 -17 17 -50 18 -135 1 -114
10 -146 42 -146 15 0 12 25 -7 78 -15 40 -11 180 6 212 9 17 20 30 25 30 6 0
10 5 10 10 0 6 -7 10 -15 10 -7 0 -18 6 -22 13 -7 12 -13 12 -40 0z"/>
<path d="M18007 28960 c-43 -9 -82 -22 -87 -30 -18 -28 -12 -142 10 -177 34
-56 42 -176 37 -550 -5 -349 -12 -428 -43 -454 -23 -19 -18 -85 8 -103 28 -20
200 -22 238 -3 23 11 25 19 28 84 3 63 0 74 -22 100 -14 17 -30 50 -35 74 -5
25 -9 263 -9 545 0 276 -2 506 -6 512 -11 18 -40 18 -119 2z"/>
<path d="M18525 28969 c-16 -6 -50 -13 -75 -17 -51 -8 -57 -21 -59 -113 -1
-46 4 -63 32 -105 l32 -49 0 -420 0 -420 -32 -63 c-38 -72 -41 -104 -13 -132
18 -18 33 -20 128 -20 133 0 142 6 142 96 0 45 -7 73 -30 119 l-30 60 0 521
c0 492 -1 522 -18 537 -21 19 -33 20 -77 6z"/>
<path d="M15083 28950 c-30 -12 -29 -32 5 -72 45 -52 72 -107 92 -182 33 -123
57 -200 79 -246 11 -25 21 -57 21 -71 0 -15 9 -46 20 -70 11 -24 20 -53 20
-65 0 -11 11 -42 24 -70 13 -27 27 -71 30 -98 3 -27 10 -54 16 -61 5 -6 16
-36 24 -67 8 -31 21 -69 30 -85 8 -17 18 -52 22 -79 3 -27 18 -74 33 -104 25
-52 28 -55 67 -58 50 -4 71 16 82 80 5 25 19 61 31 81 11 19 21 47 21 63 0 16
7 42 15 58 8 15 19 55 25 88 5 33 16 71 25 85 15 22 41 107 66 213 6 25 22 68
35 97 13 28 24 60 24 71 0 43 21 82 45 82 32 0 46 -21 61 -95 8 -36 23 -83 34
-105 11 -21 20 -48 20 -59 0 -11 8 -39 18 -63 11 -24 22 -64 25 -91 4 -26 15
-60 26 -75 11 -15 22 -49 26 -76 4 -27 13 -63 20 -80 8 -17 19 -57 25 -88 6
-31 18 -62 26 -69 8 -6 17 -29 20 -50 8 -51 32 -71 80 -67 36 3 39 5 45 41 3
20 15 47 27 60 13 14 25 46 31 85 6 35 15 70 21 77 5 6 13 34 16 61 4 27 12
56 19 64 13 15 23 46 45 130 34 133 49 179 63 201 9 13 19 44 23 69 4 24 23
87 42 140 37 104 46 133 62 198 6 24 19 51 28 60 29 30 72 97 72 113 0 32 -23
39 -126 39 -56 0 -109 -3 -118 -6 -23 -9 -20 -32 9 -66 30 -35 31 -62 6 -120
-10 -24 -22 -64 -26 -88 -4 -25 -12 -54 -18 -65 -6 -11 -16 -51 -23 -89 -8
-41 -22 -78 -34 -91 -12 -13 -20 -35 -20 -58 0 -20 -9 -59 -20 -87 -11 -28
-20 -65 -20 -83 0 -17 -11 -54 -24 -82 -14 -27 -28 -76 -31 -107 -7 -59 -16
-68 -46 -45 -26 20 -38 51 -45 113 -3 33 -12 68 -19 79 -7 11 -15 42 -19 70
-5 27 -19 70 -32 95 -13 25 -24 60 -24 78 0 18 -9 50 -20 72 -11 22 -20 48
-20 59 0 11 -11 44 -24 73 -32 69 -54 218 -38 253 17 37 15 82 -4 89 -27 10
-294 7 -315 -4 -26 -15 -24 -31 11 -75 l30 -38 0 -156 c0 -153 -1 -157 -30
-216 -16 -33 -30 -72 -30 -86 0 -14 -9 -52 -20 -84 -11 -32 -20 -68 -20 -80 0
-12 -9 -34 -20 -48 -12 -15 -25 -51 -30 -82 -11 -70 -62 -147 -82 -127 -4 4
-11 37 -14 72 -4 36 -14 79 -22 95 -9 17 -21 53 -28 80 -7 28 -20 68 -28 90
-8 22 -15 57 -16 77 0 20 -8 52 -19 70 -10 18 -24 59 -30 91 -7 32 -19 70 -27
85 -8 15 -14 43 -14 63 0 20 -7 60 -17 88 -15 48 -15 54 0 87 22 44 22 90 1
98 -24 9 -246 6 -271 -4z"/>
<path d="M17300 28576 c-14 -8 -49 -17 -79 -21 -29 -4 -70 -18 -90 -31 -57
-39 -128 -109 -136 -135 -4 -13 -13 -31 -20 -39 -7 -8 -18 -35 -25 -60 -7 -25
-17 -51 -22 -58 -18 -22 -15 -191 4 -242 9 -25 20 -66 23 -92 3 -25 12 -52 20
-58 8 -7 17 -27 21 -46 3 -18 16 -40 28 -47 11 -8 35 -29 52 -46 17 -17 55
-42 85 -56 48 -22 67 -25 177 -25 103 0 128 3 159 20 21 11 42 20 48 20 5 0
28 18 49 40 22 22 43 40 47 40 17 0 67 90 73 133 6 40 4 47 -14 57 -36 19 -62
7 -97 -44 -35 -51 -61 -71 -123 -96 -19 -8 -41 -20 -48 -27 -16 -15 -118 -18
-127 -3 -3 5 -37 26 -76 46 -53 28 -75 47 -92 76 -12 22 -30 54 -39 71 -29 51
-19 157 15 179 7 4 143 8 303 8 267 0 294 2 314 18 22 18 22 19 6 50 -9 17
-19 53 -22 79 -6 45 -50 154 -65 161 -4 2 -24 20 -45 41 -22 21 -59 44 -84 53
-156 54 -177 57 -220 34z m147 -140 c49 -33 69 -61 88 -122 22 -73 19 -74
-226 -74 -208 0 -209 0 -220 23 -11 24 2 77 20 77 5 0 16 17 24 39 13 30 27
44 69 65 46 24 63 27 128 24 62 -3 82 -8 117 -32z"/>
<path d="M20250 28576 c-14 -7 -49 -16 -79 -19 -32 -4 -63 -14 -75 -25 -12
-11 -32 -25 -45 -32 -30 -16 -62 -51 -106 -116 -60 -91 -65 -112 -65 -271 0
-130 3 -153 26 -221 14 -42 34 -84 43 -92 9 -8 22 -27 29 -42 6 -15 29 -39 51
-52 22 -14 42 -30 46 -36 3 -5 26 -19 50 -30 64 -29 268 -29 322 0 21 11 44
20 51 20 7 0 15 7 19 15 3 9 19 23 36 32 44 22 55 36 93 110 41 79 42 100 9
115 -36 16 -87 -10 -119 -60 -35 -57 -156 -122 -225 -122 -27 0 -53 5 -57 11
-3 6 -22 18 -42 26 -40 17 -102 64 -102 77 0 6 -9 19 -20 31 -20 21 -46 97
-57 163 -4 26 0 39 18 58 l22 24 292 0 c340 0 331 -2 322 81 -3 30 -15 72 -26
94 -12 21 -21 50 -21 62 0 37 -129 159 -182 174 -24 6 -63 18 -87 25 -55 17
-88 17 -121 0z m128 -128 c25 -13 52 -34 60 -48 9 -14 23 -34 33 -45 26 -31
33 -79 14 -99 -14 -14 -45 -16 -219 -16 -153 0 -206 3 -214 13 -20 24 16 104
74 163 l54 54 76 0 c60 0 87 -5 122 -22z"/>
<path d="M19346 28572 c-3 -5 -24 -12 -46 -15 -43 -5 -118 -40 -135 -61 -13
-17 -50 -36 -69 -36 -11 0 -16 10 -16 33 0 17 -5 39 -10 47 -15 23 -96 19
-164 -10 l-58 -25 5 -48 c3 -34 12 -56 31 -76 l26 -27 0 -312 0 -311 -26 -24
c-31 -29 -29 -58 6 -68 40 -11 194 -10 229 2 36 13 40 34 10 65 -11 12 -25 39
-30 61 -9 36 -14 428 -5 441 2 4 7 36 11 72 6 60 9 67 48 100 22 19 71 45 108
58 l68 23 50 -22 c28 -12 62 -36 76 -54 l25 -34 0 -311 c0 -300 -1 -312 -21
-339 -17 -23 -19 -32 -10 -50 11 -19 20 -21 121 -21 59 0 115 3 124 6 23 9 20
54 -6 82 -23 23 -23 30 -28 325 -3 195 -9 309 -16 322 -6 11 -14 37 -18 57
-10 55 -91 123 -165 138 -31 6 -68 13 -82 16 -15 3 -29 2 -33 -4z"/>
<path d="M23089 28551 c-16 -27 -23 -30 -94 -36 -104 -10 -191 -1 -216 21 -19
17 -21 17 -43 -11 -22 -28 -23 -31 -7 -52 11 -16 22 -21 36 -17 11 3 79 10
150 14 72 5 136 9 143 9 21 2 62 52 62 77 0 32 -11 30 -31 -5z"/>
<path d="M21100 28564 c-112 -12 -117 -14 -169 -65 -34 -33 -51 -58 -51 -74 0
-14 -5 -44 -11 -68 -10 -35 -9 -54 4 -107 14 -53 24 -71 59 -103 43 -40 120
-79 176 -92 17 -3 41 -14 54 -24 13 -10 51 -28 85 -40 44 -17 74 -36 103 -67
59 -65 53 -106 -28 -189 -40 -40 -111 -40 -228 2 -59 21 -110 74 -126 130 -5
21 -15 44 -20 51 -15 17 -74 15 -93 -5 -18 -18 -18 -26 10 -138 9 -38 18 -80
21 -91 3 -18 13 -22 66 -28 34 -4 74 -14 89 -22 20 -10 66 -14 163 -14 119 0
140 3 178 22 104 53 158 140 158 257 0 65 -3 77 -32 122 -18 27 -36 49 -40 49
-5 0 -25 16 -47 35 -29 26 -63 43 -134 64 -53 16 -108 38 -123 50 -15 11 -38
21 -53 21 -28 1 -63 28 -99 79 -28 39 -24 67 17 113 28 31 34 33 110 36 45 2
97 1 116 -2 44 -9 94 -51 120 -103 41 -82 82 -98 111 -42 14 29 14 37 -1 103
-20 81 -52 123 -99 130 -46 7 -246 14 -286 10z"/>
<path d="M21925 28561 c-56 -5 -77 -12 -107 -35 -21 -15 -38 -32 -38 -36 0 -5
-7 -15 -15 -23 -20 -20 -46 -93 -52 -142 -3 -31 3 -54 25 -100 34 -67 76 -109
130 -132 21 -8 51 -21 69 -29 17 -8 37 -14 45 -14 8 0 29 -11 48 -25 19 -14
40 -25 48 -25 28 0 104 -45 133 -78 20 -23 29 -43 29 -68 0 -49 -34 -110 -73
-131 -79 -42 -242 -1 -303 77 -19 23 -34 53 -34 66 0 42 -51 77 -96 65 -27 -7
-29 -11 -32 -59 -2 -35 3 -66 16 -95 10 -23 22 -59 26 -80 6 -35 9 -37 44 -37
20 -1 62 -9 92 -20 43 -15 83 -19 185 -20 117 0 135 2 175 23 51 26 130 96
130 114 0 7 9 27 20 45 30 50 27 137 -6 197 -26 45 -137 142 -172 150 -58 12
-166 53 -188 70 -15 12 -37 21 -50 21 -34 0 -90 40 -108 78 -20 41 -20 55 -1
92 22 42 72 60 169 60 110 0 162 -26 191 -96 33 -82 74 -103 113 -61 25 27 28
57 8 95 -7 15 -16 43 -20 63 -10 54 -37 77 -98 83 -98 10 -233 13 -303 7z"/>
<path d="M12763 28190 c-28 -11 -28 -13 -5 -47 15 -24 17 -64 20 -383 4 -384
1 -433 -29 -458 -55 -47 -9 -56 259 -49 272 7 338 24 432 115 40 40 90 119 90
144 0 9 9 35 20 59 29 64 29 253 0 309 -11 22 -20 44 -20 51 0 28 -53 112 -97
154 -61 59 -129 91 -220 105 -87 12 -419 12 -450 0z m466 -82 c94 -37 160
-112 191 -215 42 -140 13 -400 -48 -445 -10 -7 -25 -25 -34 -39 -9 -14 -47
-41 -85 -60 -59 -29 -80 -34 -156 -38 -112 -4 -173 5 -198 30 -18 18 -19 37
-19 379 0 345 1 361 20 380 11 11 32 22 47 26 16 3 33 7 38 9 6 2 48 3 95 1
62 -2 102 -9 149 -28z"/>
<path d="M14887 28093 c-8 -10 -18 -31 -22 -48 -18 -81 -38 -116 -67 -122 -58
-12 -60 -83 -2 -83 13 0 28 -9 34 -19 6 -12 10 -112 10 -255 0 -129 4 -246 10
-260 20 -52 133 -76 181 -38 30 25 20 48 -26 56 -74 14 -75 19 -75 265 0 244
2 251 64 251 34 0 63 21 52 38 -3 5 -22 12 -42 15 -61 10 -74 30 -74 113 0
102 -10 123 -43 87z"/>
<path d="M14283 27900 c-79 -23 -131 -66 -178 -143 l-37 -62 0 -116 c0 -108 2
-119 28 -168 36 -66 83 -115 137 -143 33 -17 60 -21 129 -21 76 0 95 3 142 27
83 42 163 158 125 182 -18 11 -54 -15 -66 -47 -8 -22 -26 -36 -68 -55 -90 -42
-125 -42 -200 -4 -58 29 -68 40 -100 97 -37 67 -48 144 -22 160 6 4 116 10
242 13 l230 5 -3 55 c-5 97 -67 179 -160 212 -77 27 -129 29 -199 8z m143 -61
c70 -33 94 -65 94 -127 0 -49 -12 -52 -176 -52 -145 0 -154 1 -168 22 -14 19
-13 25 11 67 33 58 51 77 94 100 49 26 71 25 145 -10z"/>
<path d="M13787 27893 c-15 -2 -34 -14 -42 -26 -13 -20 -13 -29 0 -72 9 -27
20 -54 25 -59 6 -6 10 -81 10 -177 0 -147 -3 -174 -21 -223 -30 -78 -21 -88
85 -84 l81 3 3 33 c2 24 -4 45 -22 71 l-26 37 0 236 c0 130 -3 243 -6 252 -6
16 -27 18 -87 9z"/>
<path d="M22760 27741 c-54 -12 -98 -39 -114 -69 -8 -16 -22 -34 -30 -41 -13
-11 -16 -38 -16 -146 0 -149 6 -164 56 -144 19 7 104 10 244 8 l215 -3 3 47
c3 50 -7 61 -23 25 -6 -14 -22 -26 -40 -29 -44 -10 -378 -10 -393 -1 -38 25
-38 197 1 239 54 60 189 97 269 75 20 -6 67 -29 103 -52 60 -40 65 -46 65 -78
0 -27 3 -33 12 -24 9 9 6 26 -13 73 -19 48 -33 68 -68 92 -41 28 -52 30 -140
33 -53 2 -112 -1 -131 -5z"/>
<path d="M21034 27395 c-10 -24 14 -43 62 -51 24 -3 55 -14 67 -24 13 -10 40
-21 60 -25 46 -9 52 -18 35 -51 -10 -20 -32 -34 -88 -55 -41 -15 -89 -28 -107
-28 -35 -1 -47 -21 -45 -75 1 -42 19 -56 40 -30 9 12 53 34 97 50 44 15 95 39
114 51 18 13 59 30 90 40 31 9 60 20 65 25 17 14 -26 48 -81 64 -29 8 -60 22
-67 30 -8 8 -35 18 -59 23 -24 4 -55 15 -68 24 -13 10 -33 17 -44 17 -11 0
-31 7 -43 16 -20 14 -23 14 -28 -1z"/>
<path d="M17010 27389 c-74 -3 -140 -7 -147 -8 -27 -2 -64 -50 -69 -88 l-5
-38 17 30 c35 62 44 64 216 65 98 0 159 4 163 10 8 13 -13 41 -29 38 -6 -1
-72 -5 -146 -9z"/>
<path d="M18110 27258 c-34 -24 -53 -54 -96 -156 -40 -93 -81 -106 -110 -37
-13 33 -13 39 5 78 11 23 26 49 32 58 17 23 4 49 -25 49 -44 0 -56 -33 -56
-148 0 -89 2 -103 18 -108 9 -3 32 -13 50 -22 33 -16 36 -15 79 8 46 25 63 48
103 142 33 77 82 99 119 52 36 -46 24 -100 -37 -161 -28 -28 -25 -57 6 -61 15
-2 34 8 57 31 34 34 35 37 35 118 0 94 -20 137 -77 164 -42 20 -64 19 -103 -7z"/>
<path d="M22976 27090 c-27 -16 -52 -32 -55 -37 -3 -5 -27 -21 -53 -36 -26
-15 -53 -33 -60 -40 -19 -19 -108 -77 -117 -77 -4 0 -18 -11 -31 -25 -29 -31
-50 -32 -87 -2 -15 12 -48 36 -72 52 -24 16 -45 35 -48 42 -3 7 -9 13 -14 13
-16 0 -93 53 -116 80 -34 39 -44 17 -41 -85 4 -105 14 -119 73 -91 39 19 38
19 104 -22 44 -27 66 -67 52 -91 -12 -19 -120 -71 -147 -71 -28 0 -65 -17 -76
-34 -12 -17 -9 -174 2 -181 6 -4 32 12 58 35 26 23 64 51 85 61 20 11 37 23
37 27 0 4 25 22 55 40 30 18 60 42 65 53 19 35 74 25 140 -26 32 -25 63 -45
69 -45 6 0 15 -8 20 -19 6 -10 33 -33 61 -51 28 -18 54 -38 58 -44 4 -7 25
-22 46 -35 46 -26 56 -19 56 45 0 46 -14 64 -49 64 -15 0 -35 6 -47 13 -104
61 -214 152 -214 178 0 12 19 30 56 50 31 18 58 38 61 45 8 21 101 64 138 64
24 0 38 6 45 19 11 22 14 148 3 154 -5 3 -30 -8 -57 -23z"/>
<path d="M18740 27025 c-11 -13 -11 -20 -2 -33 33 -46 34 -64 6 -125 -22 -51
-26 -69 -21 -119 3 -32 9 -64 14 -71 5 -7 16 -28 23 -47 16 -39 82 -106 120
-122 14 -5 66 -19 115 -30 95 -21 138 -19 230 8 153 46 253 218 188 325 -11
19 -26 51 -33 73 -16 50 -7 56 85 56 132 0 184 -47 173 -159 -7 -69 -27 -100
-90 -144 -90 -61 -74 -109 31 -94 93 12 133 87 135 252 1 111 0 115 -72 195
l-40 45 -424 3 c-382 3 -426 1 -438 -13z m445 -106 c75 -12 115 -30 115 -54 0
-8 9 -20 20 -27 25 -16 28 -89 5 -108 -8 -7 -15 -18 -15 -25 0 -23 -40 -64
-94 -94 -81 -47 -189 -42 -316 12 -52 23 -82 60 -90 113 -14 90 17 149 93 177
73 28 128 29 282 6z"/>
<path d="M20355 27011 c-190 -8 -228 -20 -247 -82 -13 -47 8 -159 30 -159 11
0 12 11 7 50 -9 62 8 107 44 123 15 6 98 11 196 12 l170 2 0 29 c0 34 14 33
-200 25z"/>
<path d="M21009 26959 c-14 -11 -45 -23 -68 -26 -53 -7 -61 -20 -22 -34 17 -6
36 -20 42 -30 5 -10 23 -26 40 -35 29 -14 32 -14 51 3 17 15 40 18 154 19 129
2 136 3 170 29 29 22 35 32 32 58 -4 42 -29 46 -69 13 -29 -25 -37 -26 -144
-26 -90 0 -117 3 -129 16 -9 8 -16 20 -16 25 0 14 -12 10 -41 -12z"/>
<path d="M17133 26874 c-21 -23 -28 -24 -161 -24 -99 0 -143 4 -156 13 -16 11
-23 11 -50 -2 -42 -22 -43 -30 -6 -53 27 -16 35 -17 47 -6 11 9 66 14 185 16
158 3 169 5 183 25 36 52 1 77 -42 31z"/>
<path d="M18097 26842 c-28 -20 -45 -43 -63 -87 -30 -76 -55 -109 -84 -113
-28 -4 -59 31 -60 66 0 29 28 83 51 100 11 7 19 17 19 22 0 14 -38 22 -70 15
l-30 -7 0 -109 c0 -95 2 -111 20 -129 24 -24 55 -32 105 -28 32 3 44 10 71 48
18 25 35 58 39 74 8 32 44 97 60 108 24 17 55 7 81 -27 27 -35 27 -35 10 -79
-10 -26 -32 -55 -52 -71 -41 -31 -43 -42 -9 -51 35 -9 85 14 96 43 12 33 11
170 -1 194 -14 25 -82 59 -117 59 -15 -1 -45 -13 -66 -28z"/>
<path d="M21326 26743 c-4 -5 -74 -10 -154 -13 -145 -5 -147 -5 -150 -29 -10
-66 21 -87 82 -56 35 18 194 20 242 3 26 -9 36 -9 48 1 19 16 21 72 4 89 -13
13 -60 16 -72 5z"/>
<path d="M20142 26709 c-18 -17 -32 -35 -32 -39 0 -41 39 -51 91 -24 25 13 56
15 167 11 76 -3 148 -7 162 -9 23 -3 25 0 25 32 0 32 -2 35 -25 31 -14 -2 -71
-5 -128 -8 -98 -4 -126 0 -217 34 -6 2 -25 -11 -43 -28z"/>
<path d="M16812 26613 c4 -38 31 -41 77 -9 41 29 81 33 114 12 12 -8 51 -22
87 -31 61 -16 65 -16 77 1 7 10 13 21 13 24 0 4 10 12 23 18 16 8 -29 11 -186
11 l-208 1 3 -27z"/>
<path d="M21042 26513 c-27 -39 -33 -74 -25 -140 5 -46 13 -64 38 -90 40 -41
92 -63 147 -63 133 1 210 66 212 178 0 47 -3 57 -27 78 -46 40 -56 31 -37 -35
7 -27 6 -43 -9 -77 -17 -38 -24 -44 -74 -58 -64 -19 -136 -21 -170 -5 -13 6
-32 28 -41 49 -15 35 -15 41 0 79 9 23 25 46 35 52 11 5 19 20 19 34 0 36 -42
34 -68 -2z"/>
<path d="M17950 26463 c-8 -3 -32 -22 -52 -42 l-38 -36 0 -90 0 -91 38 -36
c26 -26 55 -42 100 -54 58 -16 67 -16 115 -2 29 9 64 19 78 22 15 3 42 26 63
52 33 43 36 53 36 111 0 60 -2 66 -41 108 -27 29 -50 45 -65 45 -32 0 -30 -15
6 -57 32 -36 40 -87 21 -137 -12 -31 -78 -76 -111 -76 -51 0 -55 10 -60 152
l-5 133 -35 2 c-19 1 -42 -1 -50 -4z m48 -186 c-2 -53 -7 -72 -20 -81 -25 -15
-67 28 -75 77 -12 73 43 138 80 95 14 -17 17 -35 15 -91z"/>
<path d="M19374 26326 c-12 -7 -107 -13 -264 -16 -237 -5 -246 -6 -286 -29
-96 -58 -127 -160 -79 -264 15 -31 35 -62 46 -67 32 -18 24 -49 -17 -66 -36
-15 -36 -16 -30 -62 7 -51 29 -92 51 -92 8 0 37 9 65 20 44 18 74 20 240 20
104 0 212 -5 241 -11 42 -9 54 -9 66 3 15 16 27 119 17 150 -7 22 -48 23 -84
3 -19 -11 -69 -14 -211 -15 l-185 0 -47 30 c-27 17 -47 37 -47 47 0 10 -7 27
-15 37 -8 11 -15 38 -15 61 0 46 31 85 83 104 40 15 409 14 460 -1 35 -11 41
-10 53 6 8 11 12 37 9 65 -2 25 -4 53 -4 62 -1 23 -23 29 -47 15z"/>
<path d="M22952 26271 c-9 -17 -26 -32 -37 -35 -11 -3 -127 -6 -258 -6 -288 0
-317 -5 -351 -65 -14 -23 -35 -79 -46 -125 -20 -77 -21 -85 -6 -124 8 -22 18
-59 22 -81 11 -68 57 -138 103 -157 72 -31 111 -20 111 33 0 32 -12 43 -68 60
-161 47 -155 298 8 340 44 11 108 15 116 6 9 -9 54 -183 54 -210 0 -15 8 -45
19 -65 10 -20 29 -58 41 -84 15 -31 42 -62 78 -90 52 -40 59 -43 116 -42 110
2 178 62 205 183 7 33 4 55 -20 126 -16 48 -40 101 -54 119 -33 44 -31 62 8
82 17 9 36 22 40 28 10 14 -1 107 -15 123 -18 22 -48 14 -66 -16z m-105 -163
c29 -7 50 -21 70 -46 84 -107 96 -168 47 -246 -37 -59 -80 -80 -148 -73 -45 5
-56 12 -93 54 -24 26 -43 54 -43 63 -1 8 -8 33 -16 55 -8 22 -19 65 -25 95
-22 113 -13 124 91 115 41 -4 94 -11 117 -17z"/>
<path d="M20524 26199 c-10 -12 -40 -32 -66 -45 -39 -20 -62 -24 -133 -24 -93
0 -154 21 -175 60 -13 24 -30 18 -30 -10 0 -22 75 -80 104 -80 12 -1 32 -7 46
-15 39 -22 108 -18 176 11 53 22 65 33 85 70 25 49 22 65 -7 33z"/>
<path d="M21155 26120 l-130 -5 0 -40 c0 -38 1 -40 30 -37 17 2 102 4 190 5
l160 2 0 40 0 40 -60 0 c-33 0 -118 -2 -190 -5z"/>
<path d="M18220 26010 c-8 -5 -74 -10 -146 -10 -129 0 -132 -1 -171 -29 -25
-18 -42 -40 -46 -58 -7 -33 2 -110 15 -135 5 -11 4 -35 -3 -63 -10 -40 -9 -49
5 -63 14 -14 20 -14 53 -2 26 9 83 13 182 12 147 -1 181 5 181 36 -1 42 -12
45 -162 46 -125 1 -147 4 -178 21 -31 18 -35 27 -38 66 -3 39 1 48 28 74 30
29 35 30 138 33 67 3 120 -1 144 -9 45 -15 68 -1 68 40 0 44 -34 64 -70 41z"/>
<path d="M20495 25930 c-11 -5 -93 -9 -182 -9 -89 -1 -168 -4 -177 -7 -10 -4
-16 -18 -16 -39 0 -42 29 -55 67 -30 21 14 51 17 172 16 80 0 157 -1 171 -3
27 -3 36 16 26 58 -7 25 -25 29 -61 14z"/>
<path d="M21295 25925 c-27 -9 -103 -14 -236 -14 -175 -1 -198 -3 -212 -19
-21 -23 -11 -61 19 -68 12 -3 38 -1 57 5 39 13 324 17 411 6 65 -9 76 -2 76
51 0 54 -33 66 -115 39z"/>
<path d="M21094 25712 c-53 -26 -62 -35 -78 -76 -17 -43 -17 -49 -1 -96 11
-33 14 -64 10 -90 -13 -79 -29 -75 272 -72 295 4 308 6 285 58 -12 25 -14 26
-81 19 -68 -7 -69 -7 -90 24 -24 33 -40 33 -79 -3 -19 -17 -36 -21 -90 -21
-81 1 -159 21 -172 46 -6 10 -10 34 -10 54 0 30 7 44 37 71 66 61 176 61 243
1 39 -36 60 -46 60 -28 0 29 -27 71 -66 99 -37 28 -56 34 -112 38 -60 5 -74 2
-128 -24z"/>
<path d="M20513 25653 l-20 -28 -159 -3 c-151 -3 -160 -3 -178 17 -25 28 -44
26 -83 -8 l-33 -27 34 -33 34 -33 39 26 c39 26 43 27 201 25 101 0 168 3 181
10 22 12 37 53 26 70 -10 17 -20 13 -42 -16z"/>
<path d="M19340 25602 c-14 -2 -33 -11 -44 -20 -15 -15 -55 -18 -277 -22 -290
-6 -284 -4 -273 -75 8 -55 26 -89 47 -93 10 -2 53 8 96 22 68 23 95 26 207 26
99 0 145 -5 199 -20 38 -11 78 -20 88 -20 41 0 66 151 30 182 -23 20 -42 25
-73 20z"/>
<path d="M17176 25563 c-3 -3 -6 -16 -7 -27 0 -12 -10 -41 -22 -66 -17 -35
-33 -50 -72 -68 -42 -20 -55 -22 -85 -13 -44 13 -140 21 -140 11 0 -9 30 -35
58 -49 34 -18 141 -15 179 4 48 24 93 73 93 100 0 13 5 27 10 30 6 3 10 21 10
40 0 33 -11 51 -24 38z"/>
<path d="M18190 25530 c-9 -6 -116 -10 -252 -10 -255 0 -268 -3 -268 -53 0
-41 14 -50 61 -42 90 14 392 17 461 4 54 -10 70 -10 83 1 18 15 20 81 3 98
-14 14 -67 16 -88 2z"/>
<path d="M22905 25428 c-40 -23 -46 -23 -507 -28 -348 -4 -470 -8 -479 -17
-10 -10 -9 -25 1 -70 7 -32 18 -64 24 -72 14 -18 127 -9 162 14 36 23 171 34
424 35 229 0 361 -12 396 -35 26 -17 83 -23 102 -11 8 5 12 40 12 96 0 78 -2
91 -19 100 -31 16 -73 12 -116 -12z"/>
<path d="M20476 25385 c-22 -11 -66 -15 -186 -15 -171 0 -188 -5 -176 -54 8
-33 33 -37 81 -13 59 30 225 36 293 12 67 -24 78 -18 74 39 -4 42 -6 46 -31
46 -14 0 -39 -7 -55 -15z"/>
<path d="M16315 25323 c-16 -21 -34 -56 -40 -78 -8 -32 -18 -44 -48 -59 -30
-14 -36 -21 -26 -32 31 -38 109 6 125 71 10 41 44 85 66 85 11 0 23 -11 28
-25 12 -31 26 -32 33 -4 4 15 -3 30 -24 50 -42 41 -76 39 -114 -8z"/>
<path d="M18180 25310 c-14 -4 -130 -8 -258 -9 l-232 -1 -11 -27 c-8 -21 -8
-34 3 -53 17 -32 49 -36 84 -13 25 16 51 18 214 18 129 0 197 -4 226 -14 60
-19 84 -4 84 53 0 37 -4 45 -22 50 -29 7 -56 6 -88 -4z"/>
<path d="M21063 25260 c-45 -19 -76 -95 -54 -138 40 -80 41 -86 14 -143 -23
-50 -23 -57 -11 -94 7 -22 12 -62 11 -90 -5 -96 -16 -90 169 -87 191 3 205 5
213 33 12 37 -9 44 -143 45 -124 1 -178 11 -194 37 -16 24 -9 96 11 116 25 25
109 36 216 28 44 -3 87 -2 94 2 7 5 11 21 9 37 l-3 29 -155 5 c-85 3 -161 9
-167 13 -8 5 -13 29 -13 56 0 26 6 54 13 63 22 29 82 40 202 36 120 -3 139 3
132 42 -2 12 -29 15 -162 17 -88 1 -170 -2 -182 -7z"/>
<path d="M19356 25243 c-4 -5 -110 -10 -234 -13 -220 -5 -229 -6 -282 -32 -31
-15 -63 -35 -72 -45 -27 -29 -48 -89 -48 -133 0 -44 37 -137 64 -159 19 -16
21 -60 4 -62 -7 -1 -79 -1 -159 1 -163 2 -189 -4 -189 -48 1 -35 35 -112 52
-113 27 -3 44 3 61 22 17 18 37 19 398 19 317 0 386 -2 416 -15 24 -10 40 -12
46 -6 16 16 18 136 2 157 -12 18 -15 18 -67 1 -43 -13 -92 -17 -225 -17 l-170
0 -47 31 c-55 37 -86 91 -86 151 1 98 75 128 320 128 148 0 173 -2 215 -21 57
-25 68 -18 70 48 3 71 -11 113 -39 113 -12 0 -26 -3 -30 -7z"/>
<path d="M16823 25128 c-11 -13 -16 -34 -14 -53 1 -8 267 -12 374 -5 5 0 7 10
5 23 -3 22 -6 22 -163 27 -88 3 -167 9 -176 13 -9 5 -20 3 -26 -5z"/>
<path d="M17950 25089 c-13 -6 -39 -21 -57 -35 l-33 -25 0 -98 0 -99 38 -31
c20 -17 45 -39 55 -49 15 -14 37 -17 115 -17 l97 0 52 43 c64 54 76 84 71 167
-3 55 -8 69 -33 96 -32 34 -63 49 -82 42 -15 -6 -17 -33 -3 -33 19 0 50 -65
50 -104 0 -49 -30 -98 -76 -125 -82 -48 -104 -19 -104 135 0 62 -3 119 -6 128
-7 18 -46 20 -84 5z m36 -86 c8 -11 13 -46 14 -89 0 -56 -4 -74 -18 -87 -17
-16 -20 -16 -39 6 -55 60 -57 133 -4 174 22 17 32 16 47 -4z"/>
<path d="M16319 25040 c-20 -22 -40 -55 -43 -74 -4 -21 -19 -45 -38 -61 -29
-25 -30 -27 -13 -45 17 -19 18 -19 56 13 25 21 40 44 44 66 4 18 16 47 28 63
48 65 95 -1 62 -87 -19 -52 -16 -62 14 -46 18 10 21 20 19 87 -2 127 -57 163
-129 84z"/>
<path d="M20135 25036 c-45 -45 -22 -101 32 -77 17 8 84 12 197 11 94 0 177
-1 184 0 15 0 16 42 1 57 -8 8 -20 8 -41 1 -44 -16 -263 -4 -311 16 -37 16
-38 16 -62 -8z"/>
<path d="M22497 25044 c-48 -8 -76 -19 -95 -36 -15 -14 -37 -31 -49 -37 -13
-7 -39 -46 -63 -94 -44 -91 -49 -135 -25 -202 8 -22 14 -56 15 -76 0 -65 61
-124 192 -188 64 -31 72 -32 187 -32 117 0 121 1 197 37 111 52 164 109 188
199 36 137 34 149 -28 272 -26 52 -124 141 -164 149 -57 12 -55 -49 3 -80 48
-26 80 -71 100 -140 15 -52 15 -62 1 -117 -13 -51 -55 -127 -76 -137 -3 -1
-21 -12 -40 -24 -19 -12 -68 -30 -109 -39 -74 -16 -75 -16 -97 6 -22 22 -22
28 -23 270 -1 137 -4 252 -7 257 -12 20 -43 23 -107 12z m47 -146 c13 -18 16
-56 16 -205 l0 -183 -25 -6 c-14 -3 -45 -3 -68 0 -41 6 -61 20 -120 84 -40 43
-50 156 -18 208 48 78 91 105 193 123 4 0 14 -9 22 -21z"/>
<path d="M17136 24875 c-25 -19 -234 -21 -302 -4 -36 9 -51 9 -70 -1 -29 -16
-29 -18 1 -55 23 -28 26 -29 47 -15 17 11 62 16 183 18 169 3 185 8 185 54 0
22 -18 23 -44 3z"/>
<path d="M20530 24792 c0 -5 -11 -21 -25 -36 -24 -26 -24 -26 -177 -26 -84 0
-158 4 -164 8 -6 4 -13 15 -17 25 -9 24 -29 21 -57 -8 -14 -15 -35 -25 -52
-25 -15 0 -28 -4 -28 -10 0 -5 7 -10 15 -10 8 0 30 -14 50 -31 l36 -32 28 27
27 26 170 0 c196 0 219 7 219 59 0 19 -6 36 -12 39 -7 2 -13 -1 -13 -6z"/>
<path d="M16413 24722 c14 -53 2 -109 -26 -118 -12 -4 -25 -12 -29 -18 -5 -8
-13 -8 -28 2 -24 15 -50 16 -50 2 0 -5 -9 -10 -20 -10 -11 0 -20 5 -20 10 0 6
-11 10 -25 10 -34 0 -35 -37 -1 -50 13 -5 27 -14 31 -19 9 -16 100 -13 139 3
46 19 76 71 76 133 0 35 -5 54 -17 65 -36 31 -41 29 -30 -10z"/>
<path d="M11563 24744 c-19 -8 -18 -174 1 -174 10 0 13 15 12 59 -1 33 3 63 7
68 8 7 43 7 200 2 45 -2 117 12 117 22 0 5 -6 9 -12 10 -7 0 -31 3 -53 6 -42
6 -82 7 -155 2 -25 -2 -58 0 -75 4 -16 3 -36 4 -42 1z"/>
<path d="M17678 24635 c-8 -19 -8 -31 1 -51 10 -22 17 -25 39 -21 26 5 69 -3
192 -38 30 -8 64 -15 77 -15 36 0 125 -46 126 -65 0 -6 -31 -16 -69 -22 -38
-7 -85 -22 -105 -33 -20 -11 -54 -20 -75 -20 -22 0 -52 -7 -68 -15 -15 -8 -48
-15 -71 -15 -43 0 -43 -1 -50 -40 -7 -43 1 -96 16 -106 5 -3 21 4 35 15 36 28
133 29 178 2 17 -10 58 -24 90 -31 74 -15 96 -28 96 -57 0 -26 -20 -38 -86
-53 -26 -6 -62 -17 -79 -25 -76 -35 -159 -56 -196 -50 -35 6 -40 4 -49 -20
-14 -36 -13 -58 3 -79 13 -18 16 -18 73 7 32 14 76 28 98 32 21 4 55 15 75 26
20 10 46 19 59 19 12 0 62 16 110 36 48 19 106 42 130 51 48 17 56 44 20 67
-26 16 -138 46 -174 46 -13 0 -33 9 -45 21 -12 12 -44 28 -73 38 -46 15 -51
19 -51 46 0 27 4 31 40 38 22 4 67 16 100 27 33 10 81 21 107 24 28 3 64 17
92 36 25 17 46 33 46 34 0 9 -102 66 -119 66 -11 0 -42 8 -68 19 -26 10 -68
21 -92 25 -24 4 -54 15 -67 25 -13 11 -50 21 -85 25 -34 4 -85 18 -112 32 -28
13 -52 24 -54 24 -2 0 -9 -11 -15 -25z"/>
<path d="M16947 24613 c-20 -14 -37 -31 -37 -37 0 -6 -9 -28 -20 -49 -11 -20
-20 -49 -20 -63 0 -29 -40 -99 -83 -146 -19 -20 -41 -32 -68 -35 -57 -8 -43
-28 19 -27 63 2 112 36 136 97 71 170 112 241 148 253 11 3 39 3 61 0 33 -5
46 -13 59 -36 9 -17 22 -30 28 -30 18 0 0 53 -27 78 -20 18 -36 22 -91 22 -57
0 -73 -4 -105 -27z"/>
<path d="M21205 24603 c-184 -4 -185 -4 -185 -52 0 -49 20 -68 52 -49 16 9 68
13 178 13 l155 0 3 35 c4 36 -17 62 -47 58 -9 -1 -79 -4 -156 -5z"/>
<path d="M19175 24510 c-9 -28 -2 -35 60 -64 31 -14 58 -33 61 -43 3 -10 14
-35 24 -55 20 -37 20 -37 -2 -95 -12 -32 -30 -68 -42 -81 -35 -39 -114 -70
-203 -77 -122 -11 -142 -5 -226 66 -27 23 -31 34 -35 87 -7 91 -1 103 74 151
60 39 65 45 59 69 -15 65 -75 70 -140 10 -76 -71 -105 -189 -69 -283 9 -22 18
-50 21 -61 7 -30 101 -109 154 -131 34 -14 72 -18 169 -18 107 0 132 3 172 22
70 32 112 76 152 158 39 81 46 142 21 185 -8 14 -21 39 -29 56 -39 82 -203
159 -221 104z"/>
<path d="M20300 24501 l-185 -6 0 -29 0 -29 175 -2 c96 -1 187 -5 202 -10 32
-9 71 25 66 58 -4 26 4 25 -258 18z"/>
<path d="M21183 24384 c-28 -17 -49 -40 -64 -72 -13 -26 -29 -53 -36 -60 -7
-7 -13 -23 -13 -35 0 -12 -12 -46 -27 -75 -31 -62 -68 -87 -106 -73 -40 16
-57 49 -57 115 0 48 5 67 26 97 14 21 39 42 55 48 46 16 38 41 -15 41 -84 0
-116 -51 -116 -191 0 -72 2 -78 36 -122 39 -51 76 -65 138 -53 39 7 116 84
116 115 0 11 4 22 9 26 5 3 17 29 26 58 10 28 26 61 36 73 11 11 19 25 19 31
0 21 81 33 105 15 24 -17 65 -94 65 -121 0 -39 -46 -119 -80 -136 -29 -15 -63
-59 -53 -69 4 -3 23 -6 43 -6 43 0 69 24 99 90 23 50 29 168 10 217 -18 47
-109 114 -156 113 -10 -1 -37 -12 -60 -26z"/>
<path d="M16179 24269 c-8 -16 -8 -28 0 -46 10 -22 16 -24 44 -18 66 14 168
17 182 5 23 -19 45 -4 45 29 0 31 -18 45 -41 30 -23 -15 -143 -11 -165 6 -27
21 -51 18 -65 -6z"/>
<path d="M20525 24247 c-28 -44 -60 -51 -235 -57 -156 -5 -165 -6 -168 -25 -3
-20 1 -20 175 -17 195 4 237 14 253 57 22 58 5 87 -25 42z"/>
<path d="M22968 24224 c-27 -14 -98 -94 -98 -109 0 -15 -76 -91 -125 -125
-104 -71 -150 -106 -176 -133 -35 -38 -59 -32 -74 18 -26 86 -98 176 -165 208
-101 48 -248 17 -320 -66 -72 -84 -73 -89 -78 -420 -2 -163 -1 -304 2 -313 5
-13 9 -12 33 3 25 17 65 18 483 21 441 3 457 2 513 -18 31 -12 62 -18 67 -15
12 7 13 174 2 193 -7 10 -15 10 -43 -2 -42 -17 -158 -29 -304 -30 -109 -1
-110 -1 -138 28 -26 27 -27 32 -21 95 3 36 11 80 17 96 14 39 58 95 75 95 7 0
15 6 18 14 3 8 32 32 65 52 32 21 59 42 59 46 0 4 19 17 41 29 23 11 47 25 53
30 50 42 103 79 112 79 7 0 26 16 43 36 31 34 32 38 29 117 -3 74 -5 82 -23
84 -11 1 -32 -5 -47 -13z m-665 -284 c65 -24 90 -50 111 -113 9 -27 23 -61 31
-77 11 -21 15 -62 15 -149 0 -66 -3 -126 -6 -135 -8 -22 -47 -27 -224 -29
-200 -4 -214 0 -229 58 -22 88 -6 299 28 362 15 30 73 72 118 89 53 19 94 17
156 -6z"/>
<path d="M16883 24013 c-14 -5 -18 -130 -5 -149 4 -6 37 -14 74 -17 37 -3 87
-15 110 -25 24 -11 66 -23 95 -27 31 -4 58 -14 69 -26 9 -10 27 -19 38 -19 12
0 40 -9 63 -20 23 -10 63 -22 88 -26 27 -4 49 -13 52 -21 7 -19 -42 -60 -82
-69 -16 -3 -39 -14 -50 -24 -11 -10 -31 -21 -45 -25 -56 -16 -156 -58 -174
-74 -14 -12 -39 -16 -116 -16 -128 0 -130 -2 -130 -119 0 -60 5 -98 13 -110
12 -17 16 -16 63 10 59 33 59 33 155 78 41 20 80 36 86 36 5 0 45 18 87 41 43
22 102 49 131 59 29 10 64 25 77 33 12 8 34 18 48 22 14 4 44 16 67 27 86 40
213 17 283 -52 l40 -39 0 -85 c0 -79 2 -87 24 -101 32 -21 83 -8 110 28 26 35
25 106 -3 167 -22 49 -105 134 -142 145 -13 4 -33 13 -44 20 -11 6 -38 15 -59
19 -22 4 -50 16 -63 26 -13 10 -42 21 -65 25 -22 4 -59 16 -82 26 -23 10 -50
19 -60 19 -11 0 -27 7 -37 16 -19 17 -173 74 -201 74 -9 0 -34 11 -54 25 -20
14 -45 25 -55 25 -10 0 -38 9 -61 19 -24 10 -54 24 -68 30 -25 11 -46 23 -90
51 -29 19 -70 30 -87 23z"/>
<path d="M16390 23954 c-18 -10 -67 -14 -175 -14 -116 -1 -154 -4 -169 -15
-41 -31 -5 -38 204 -39 219 -1 223 0 201 58 -12 29 -24 31 -61 10z"/>
<path d="M19902 23920 l3 -22 237 -1 c215 -2 239 -4 255 -20 17 -18 16 -20
-21 -50 -22 -18 -47 -36 -56 -42 -65 -40 -148 -97 -165 -112 -11 -11 -33 -28
-50 -38 -39 -24 -142 -106 -177 -141 -18 -16 -28 -37 -28 -55 0 -31 15 -46 33
-31 7 6 40 16 75 23 58 12 77 28 52 44 -22 13 -8 45 33 74 23 16 51 38 62 49
11 10 40 31 65 47 25 15 49 34 53 42 5 8 18 18 30 24 12 5 40 23 62 39 22 17
64 46 93 66 63 41 106 84 95 95 -5 5 -143 10 -308 12 -165 1 -311 7 -323 11
-21 8 -23 6 -20 -14z"/>
<path d="M19327 23850 l-28 -30 -150 0 c-149 0 -331 -21 -356 -42 -7 -5 -25
-31 -40 -56 -25 -43 -27 -56 -28 -152 0 -95 3 -110 28 -162 16 -32 32 -58 37
-58 5 0 21 -12 35 -26 20 -20 33 -25 67 -22 37 3 43 7 49 32 12 42 -16 84 -63
96 -50 14 -64 31 -72 84 -11 70 8 121 56 156 44 32 98 40 117 17 6 -8 21 -61
34 -118 46 -202 120 -298 229 -299 74 0 123 24 149 73 11 23 25 45 30 48 5 3
12 29 16 57 4 40 1 59 -14 89 -11 21 -25 54 -32 75 -7 20 -18 39 -26 42 -23 8
-18 34 11 52 14 9 31 29 39 44 12 24 11 31 -12 78 -14 29 -31 52 -37 52 -6 -1
-24 -14 -39 -30z m-62 -175 c44 -45 78 -106 82 -149 5 -43 3 -47 -38 -86 -47
-43 -79 -57 -102 -43 -41 24 -79 67 -93 104 -15 43 -44 162 -44 180 0 17 38
24 107 19 51 -4 73 -10 88 -25z"/>
<path d="M11491 23798 c-70 -8 -93 -20 -73 -40 8 -8 63 -11 189 -10 98 1 184
2 191 2 6 0 12 9 12 20 0 11 -6 22 -12 25 -27 8 -246 11 -307 3z"/>
<path d="M16390 23776 c0 -7 7 -19 15 -26 18 -15 19 -79 1 -102 -18 -25 -56
-37 -87 -28 -15 4 -33 4 -40 -1 -8 -5 -29 -9 -47 -9 -26 0 -33 -4 -30 -17 5
-26 99 -45 163 -34 27 5 51 14 53 19 2 6 12 20 23 33 27 31 26 117 -2 153 -22
28 -49 35 -49 12z"/>
<path d="M16285 23393 c4 -10 9 -32 12 -49 5 -27 1 -32 -34 -46 -21 -9 -74
-22 -118 -28 -44 -7 -88 -19 -97 -28 -44 -39 4 -79 75 -63 42 10 73 33 82 61
4 12 20 19 55 23 27 3 81 15 120 27 55 16 70 25 70 40 0 29 -25 47 -74 54 -25
4 -48 11 -51 17 -4 5 -15 9 -27 9 -15 0 -18 -4 -13 -17z"/>
<path d="M11611 23362 c-63 -20 -71 -35 -63 -125 4 -52 6 -57 28 -57 24 0 24
1 8 25 -12 19 -15 36 -10 70 8 48 18 54 54 29 21 -15 26 -14 59 1 34 16 38 16
71 1 28 -14 37 -15 43 -4 10 16 11 40 3 62 -8 22 -121 20 -193 -2z"/>
<path d="M17591 23156 c-9 -11 -10 -25 -2 -51 13 -47 -2 -81 -42 -95 -44 -15
-559 -14 -575 2 -7 7 -12 35 -12 64 0 69 -7 84 -39 84 -38 0 -51 -17 -51 -66
0 -24 -4 -54 -10 -68 -9 -25 -12 -26 -99 -26 -121 0 -151 -7 -151 -35 0 -33
29 -53 103 -68 74 -16 136 -60 149 -107 17 -62 98 -58 98 4 0 19 6 38 13 44 9
7 121 12 328 14 l315 3 42 33 c70 56 81 164 26 244 -29 41 -70 52 -93 24z"/>
<path d="M18953 23138 c-88 -32 -107 -44 -164 -105 -32 -35 -69 -144 -69 -204
1 -24 9 -62 20 -84 11 -22 19 -45 20 -52 0 -14 90 -101 122 -117 50 -26 153
-56 192 -56 46 0 156 29 204 54 43 22 109 93 117 125 4 14 14 34 22 43 10 12
18 44 21 93 4 62 1 79 -14 102 -11 16 -24 39 -29 53 -31 74 -86 125 -149 137
-17 3 -43 12 -58 20 -15 7 -53 16 -85 18 -48 4 -74 0 -150 -27z m234 -113 c46
-6 113 -34 113 -47 0 -4 11 -18 25 -30 22 -19 25 -29 25 -94 0 -67 -2 -75 -27
-99 -85 -80 -274 -127 -374 -94 -19 7 -58 32 -86 56 l-53 45 0 72 c0 64 3 77
28 108 60 78 176 106 349 83z"/>
<path d="M16262 23143 c2 -9 14 -20 27 -23 35 -8 37 -28 4 -35 -15 -4 -35 -11
-43 -16 -38 -24 -83 -39 -119 -39 -43 0 -92 -15 -102 -32 -8 -13 0 -48 11 -48
5 0 15 -3 24 -6 9 -3 24 5 37 20 15 18 33 26 53 26 37 0 146 32 233 69 74 31
84 56 26 67 -21 4 -50 13 -65 20 -40 21 -90 19 -86 -3z"/>
<path d="M11574 23044 c-20 -21 -33 -43 -30 -51 4 -8 6 -31 6 -51 1 -51 29
-80 92 -97 47 -12 59 -11 103 3 45 15 50 20 53 50 4 36 -3 40 -30 15 -13 -12
-43 -18 -102 -21 -80 -4 -84 -3 -91 18 -4 12 -4 42 0 65 6 44 6 44 60 55 43 9
66 8 110 -3 60 -15 68 -9 30 28 -21 22 -33 25 -95 25 -68 0 -72 -1 -106 -36z"/>
<path d="M20205 23060 c-11 -34 -45 -43 -170 -48 -101 -4 -127 -2 -154 12 -30
16 -36 16 -72 2 -22 -9 -51 -16 -64 -16 -14 0 -25 -4 -25 -10 0 -5 5 -10 10
-10 6 0 29 -14 53 -31 34 -25 48 -29 72 -24 17 4 101 10 188 14 158 6 159 6
183 34 24 28 29 52 18 81 -9 22 -31 20 -39 -4z"/>
<path d="M20150 22791 c0 -6 11 -22 25 -37 33 -35 34 -103 2 -158 -41 -73
-129 -100 -162 -50 -15 23 -18 24 -33 11 -9 -9 -29 -19 -45 -22 -33 -9 -39
-16 -27 -35 7 -11 37 -16 122 -18 l113 -3 50 46 50 47 0 81 c0 58 -4 82 -13
85 -8 2 -25 17 -40 33 -26 29 -42 37 -42 20z"/>
<path d="M17583 22611 c-10 -10 -29 -22 -43 -26 -14 -5 -166 -11 -338 -14
-342 -7 -337 -6 -328 -66 12 -84 28 -126 51 -135 36 -14 106 -3 126 19 26 28
80 33 305 29 187 -3 201 -4 236 -26 26 -16 49 -22 75 -20 l38 3 3 108 c3 132
-3 147 -63 147 -30 0 -50 -6 -62 -19z"/>
<path d="M11770 22536 c-13 -20 -35 -43 -51 -51 -54 -28 -225 -11 -237 24 -5
16 -22 14 -22 -3 0 -8 22 -33 49 -55 46 -39 52 -41 114 -41 69 0 87 9 160 82
29 29 32 44 18 67 -8 12 -14 7 -31 -23z"/>
<path d="M16514 22544 c-20 -19 -24 -31 -20 -51 20 -77 72 -95 126 -43 35 35
38 58 9 94 -28 35 -80 36 -115 0z"/>
<path d="M18660 22391 c-8 -5 -46 -14 -84 -20 -38 -5 -73 -16 -78 -23 -4 -7
-8 -33 -8 -58 0 -25 -10 -65 -22 -90 -15 -32 -22 -72 -26 -138 -4 -83 -1 -103
24 -180 15 -48 38 -98 50 -112 12 -14 26 -34 32 -46 20 -39 146 -114 224 -135
181 -47 423 -1 535 101 33 29 83 114 83 139 0 7 10 30 23 50 19 31 22 49 22
142 0 66 -4 111 -12 120 -6 8 -21 40 -33 72 -41 110 -210 233 -234 171 -9 -24
18 -60 63 -86 23 -13 56 -48 82 -87 l44 -65 0 -101 c0 -85 -3 -104 -21 -130
-11 -16 -33 -48 -48 -71 -46 -70 -173 -123 -316 -131 -70 -4 -102 0 -183 21
-152 40 -210 91 -241 214 -19 72 -20 107 -4 184 14 68 59 118 148 166 62 33
75 61 38 86 -25 18 -36 19 -58 7z"/>
<path d="M20166 22353 c-4 -5 -78 -10 -164 -13 l-157 -5 0 -30 0 -30 60 5 c96
7 236 6 286 -3 43 -8 47 -7 52 14 12 44 -2 69 -37 69 -18 0 -36 -3 -40 -7z"/>
<path d="M17010 22201 c-57 -30 -97 -74 -125 -136 -25 -54 -27 -65 -23 -169 3
-78 9 -120 21 -141 9 -16 17 -34 17 -40 0 -19 93 -106 139 -128 84 -42 138
-52 287 -52 135 0 142 1 180 26 22 14 48 29 59 32 29 10 99 85 126 137 20 39
23 59 23 155 0 97 -3 116 -26 162 -26 55 -98 125 -158 157 -23 11 -51 16 -80
14 -41 -3 -45 -6 -48 -31 -4 -35 11 -54 48 -62 48 -11 118 -83 135 -140 34
-113 -26 -217 -162 -277 -40 -18 -68 -22 -168 -22 -117 -1 -123 0 -185 32 -92
46 -115 83 -115 183 0 68 3 81 24 103 13 14 36 28 50 31 15 3 44 19 64 36 46
38 51 86 12 124 -29 30 -49 31 -95 6z"/>
<path d="M11599 22180 c-113 -3 -161 -9 -173 -19 -12 -10 -14 -17 -7 -24 13
-13 379 -13 392 0 4 4 6 18 3 31 -5 16 -13 21 -33 20 -14 -1 -96 -4 -182 -8z"/>
<path d="M19825 22130 c-49 -13 -76 -27 -90 -44 -58 -74 -67 -90 -72 -129 l-6
-42 27 24 c14 14 26 30 26 36 0 35 149 105 222 105 64 0 215 -60 226 -89 3 -9
14 -26 25 -38 37 -42 35 -195 -4 -234 -18 -18 -35 -19 -235 -19 l-216 0 -39
38 c-42 43 -49 39 -49 -29 0 -46 14 -79 34 -79 8 0 27 7 42 15 23 12 73 15
242 15 200 0 216 -1 240 -20 41 -33 47 -15 46 143 0 126 -3 146 -22 182 -12
22 -22 45 -22 51 0 22 -70 82 -112 97 -63 21 -134 37 -166 36 -15 0 -58 -9
-97 -19z"/>
<path d="M11670 22033 c-93 -4 -115 -15 -125 -64 -9 -41 4 -106 22 -113 13 -5
15 0 10 30 -13 80 19 130 54 83 l18 -24 23 23 c30 27 42 27 84 2 l33 -21 11
21 c6 12 10 31 8 43 -3 25 -7 25 -138 20z"/>
<path d="M11583 21709 c-39 -11 -42 -23 -39 -124 l3 -80 131 -3 c126 -2 132
-2 132 17 0 30 -15 34 -116 35 -111 1 -127 11 -117 70 7 42 48 76 92 76 33 0
24 6 -19 13 -19 3 -49 1 -67 -4z"/>
<path d="M16034 21491 c-20 -9 -74 -105 -74 -131 0 -6 -7 -18 -15 -26 -8 -8
-20 -34 -26 -57 -17 -64 -40 -97 -83 -119 -59 -30 -97 -19 -124 36 -32 64 -29
122 9 174 17 23 38 42 48 42 9 0 26 7 37 15 18 14 18 16 1 29 -16 12 -24 12
-62 -1 -53 -18 -61 -27 -69 -78 -20 -127 -19 -139 8 -180 43 -67 77 -94 125
-101 79 -12 144 40 177 140 50 155 98 206 174 186 67 -18 80 -38 80 -124 0
-83 -19 -123 -80 -164 -49 -33 -45 -47 10 -43 25 1 52 7 62 12 32 17 54 140
43 240 -6 52 -13 66 -50 106 -41 45 -44 47 -106 50 -35 1 -74 -1 -85 -6z"/>
<path d="M17575 21360 l-38 -30 -308 0 c-184 0 -318 -4 -334 -10 -25 -9 -27
-14 -22 -53 7 -58 23 -115 37 -132 21 -26 107 -19 146 10 33 25 33 25 264 25
226 0 232 0 280 -25 55 -28 80 -31 98 -13 15 15 16 211 2 239 -17 31 -79 26
-125 -11z"/>
<path d="M16517 21308 c-26 -21 -30 -60 -7 -95 17 -28 25 -33 59 -33 51 0 86
38 77 85 -8 38 -31 55 -76 55 -20 0 -44 -6 -53 -12z"/>
<path d="M19290 21056 c-55 -29 -161 -37 -494 -35 l-331 1 -13 -25 c-16 -33
-2 -102 27 -130 26 -27 75 -26 129 2 39 20 56 21 354 21 290 0 316 -2 357 -20
24 -11 49 -20 57 -20 31 0 48 58 45 153 -2 57 -70 85 -131 53z"/>
<path d="M17520 20917 c-74 -36 -34 -34 -670 -36 -179 -1 -332 -5 -340 -11
-12 -7 -12 -21 -3 -86 6 -42 17 -80 24 -85 8 -5 46 -9 85 -9 59 0 76 4 100 23
28 22 29 22 414 22 378 0 386 0 434 -22 48 -23 99 -29 130 -17 23 9 23 199 0
232 -23 34 -92 30 -174 -11z"/>
<path d="M15850 20918 c-81 -20 -109 -39 -143 -98 -38 -63 -50 -111 -41 -158
9 -43 24 -41 24 3 0 58 45 127 100 151 43 20 49 20 84 6 20 -8 40 -12 43 -8 3
3 7 24 7 47 1 52 -22 71 -74 57z"/>
<path d="M16102 20898 c3 -7 14 -17 25 -22 56 -26 94 -139 73 -218 -29 -106
-167 -184 -250 -141 -30 16 -39 16 -60 6 -14 -7 -34 -13 -44 -13 -35 0 -107
44 -124 75 -8 16 -17 25 -19 18 -7 -20 25 -69 64 -101 47 -37 162 -72 236 -72
75 0 154 31 198 77 63 68 70 85 70 185 1 77 -2 95 -20 119 -12 15 -21 33 -21
39 0 5 -4 10 -9 10 -6 0 -22 11 -37 25 -28 26 -89 36 -82 13z"/>
<path d="M19334 20718 c-27 -22 -40 -23 -229 -28 -181 -5 -205 -7 -247 -28
-26 -12 -54 -22 -63 -22 -10 0 -27 -24 -45 -62 -48 -101 -41 -208 23 -338 36
-74 152 -102 172 -41 11 37 -5 60 -66 92 -50 27 -61 37 -69 69 -14 51 -2 127
25 158 17 20 34 26 77 30 72 6 82 -5 103 -120 17 -92 63 -200 104 -244 10 -11
40 -28 66 -39 43 -16 54 -16 99 -5 66 16 94 34 112 73 9 18 22 43 30 57 23 38
11 113 -30 194 -20 39 -36 73 -36 78 0 4 17 26 37 49 l37 41 -25 44 c-34 64
-41 68 -75 42z m-72 -174 c23 -9 80 -108 85 -147 5 -30 0 -45 -23 -78 -45 -66
-111 -79 -159 -32 -37 38 -51 67 -75 162 -29 109 -24 116 82 107 43 -4 83 -9
90 -12z"/>
<path d="M17122 20515 c-103 -17 -192 -77 -229 -155 -38 -81 -43 -197 -12
-270 12 -30 35 -67 51 -82 15 -15 28 -36 28 -47 0 -17 -6 -21 -34 -21 -40 0
-70 -25 -60 -49 3 -9 15 -42 26 -74 11 -32 27 -61 34 -64 8 -3 28 7 45 21 l31
26 484 0 485 0 25 -27 c20 -22 29 -25 42 -16 25 15 25 231 1 246 -13 8 -24 5
-48 -15 -40 -35 -116 -50 -221 -46 -80 3 -85 4 -88 26 -2 13 3 34 12 47 41 62
38 223 -5 313 -19 38 -112 132 -132 132 -5 0 -23 11 -40 24 -57 42 -241 57
-395 31z m394 -178 c73 -37 108 -91 112 -176 3 -54 -1 -74 -20 -110 -25 -48
-25 -48 -110 -86 -74 -32 -162 -33 -320 -1 -106 21 -120 26 -145 56 -38 44
-52 78 -53 125 0 61 16 104 54 141 68 66 140 84 312 80 105 -3 126 -7 170 -29z"/>
<path d="M16217 20271 c-24 -16 -59 -19 -238 -23 l-210 -5 -49 -48 c-39 -38
-51 -58 -56 -91 -7 -46 12 -98 47 -130 19 -17 20 -17 14 37 -9 75 11 129 56
151 48 24 398 26 443 3 17 -9 33 -12 38 -7 12 12 6 125 -7 128 -5 1 -23 -6
-38 -15z"/>
<path d="M11425 20121 c-3 -10 -3 -26 1 -35 5 -14 28 -16 160 -18 85 -1 169
-2 187 -2 28 -1 32 2 32 24 0 24 -2 25 -63 21 -49 -2 -67 1 -82 14 -18 16 -22
16 -54 1 -43 -20 -129 -21 -150 -1 -19 19 -23 19 -31 -4z"/>
<path d="M19345 19995 c-28 -10 -104 -14 -257 -14 -203 -1 -268 -8 -268 -31 0
-4 -11 -12 -25 -18 -29 -13 -75 -99 -75 -141 0 -37 38 -140 62 -167 26 -29 22
-50 -12 -64 -39 -16 -45 -39 -23 -101 25 -72 47 -80 115 -44 l53 27 200 -1
c152 -2 207 -5 229 -16 38 -19 49 -19 69 3 18 19 24 117 9 137 -24 33 -39 36
-80 15 -38 -20 -54 -21 -224 -18 l-183 3 -38 30 c-69 54 -97 159 -58 213 32
45 85 54 297 49 104 -2 206 -8 226 -14 55 -16 66 -3 70 87 3 74 3 75 -22 77
-14 1 -43 -5 -65 -12z"/>
<path d="M15740 19900 c-10 -19 -21 -20 -160 -20 -81 0 -155 -3 -164 -6 -20
-8 -20 -33 0 -84 19 -46 32 -50 64 -15 l23 25 352 0 c301 0 354 -2 373 -16 32
-22 42 -10 42 56 0 64 -12 81 -39 56 -15 -13 -47 -16 -200 -16 -162 0 -186 2
-221 20 -22 11 -44 20 -49 20 -6 0 -15 -9 -21 -20z"/>
<path d="M17625 19589 c-37 -21 -58 -23 -325 -29 -330 -8 -346 -12 -401 -88
-32 -44 -34 -53 -37 -140 -4 -85 -2 -97 23 -145 15 -28 43 -65 61 -80 46 -38
45 -69 -1 -86 -54 -19 -85 -88 -85 -185 0 -64 5 -86 34 -149 18 -41 39 -77 45
-81 22 -14 10 -33 -28 -44 -50 -16 -57 -42 -31 -117 32 -94 51 -104 110 -60
l34 25 290 0 c268 0 294 -2 335 -20 24 -11 47 -20 52 -20 13 0 11 237 -2 245
-5 4 -18 0 -28 -9 -33 -30 -146 -46 -337 -46 -134 0 -194 4 -232 15 -29 9 -52
20 -52 25 0 5 -11 21 -25 36 -14 15 -32 50 -41 79 -32 101 6 173 104 194 31 6
151 11 288 11 215 0 239 -2 276 -20 32 -15 44 -17 50 -8 9 16 11 212 1 221 -3
4 -17 -3 -30 -15 -23 -21 -34 -23 -219 -26 -107 -3 -237 -1 -288 3 -87 6 -98
9 -126 36 -34 33 -70 114 -70 160 0 48 26 96 62 116 30 16 62 18 323 18 266 0
292 -2 317 -19 37 -24 39 -16 36 115 -3 120 -11 127 -83 88z"/>
<path d="M16140 19594 c0 -3 9 -17 19 -30 11 -14 29 -53 40 -87 20 -61 20 -63
2 -116 -12 -33 -30 -63 -45 -74 -42 -30 -156 -67 -209 -67 -69 0 -191 45 -222
82 -32 37 -33 15 -3 -46 18 -38 31 -49 81 -71 78 -36 153 -42 258 -21 98 20
114 29 165 91 43 54 54 102 43 196 -6 56 -12 67 -41 91 -18 15 -41 35 -50 43
-18 15 -38 20 -38 9z"/>
<path d="M18555 19438 c-22 -15 -65 -45 -95 -65 -30 -21 -61 -43 -68 -50 -7
-7 -31 -13 -53 -13 -32 0 -39 -4 -39 -19 0 -27 -61 -77 -103 -85 -44 -8 -60
-27 -51 -60 8 -35 35 -33 77 4 19 17 38 30 43 30 4 0 18 9 30 21 15 14 39 22
71 24 45 3 48 5 53 33 7 40 79 100 131 108 42 7 59 26 59 68 0 36 -10 37 -55
4z"/>
<path d="M19005 19275 c-86 -14 -115 -23 -115 -35 0 -4 -13 -13 -30 -20 -34
-14 -100 -83 -100 -105 0 -8 -10 -43 -21 -76 -15 -44 -20 -75 -16 -108 17
-144 157 -266 319 -278 163 -12 291 53 359 182 35 68 50 171 29 215 -38 83
-78 146 -98 156 -12 6 -33 20 -45 32 -14 13 -48 24 -97 32 -41 6 -82 13 -90
15 -8 1 -51 -3 -95 -10z m210 -115 c29 -11 43 -21 96 -72 38 -36 39 -39 39
-105 -1 -59 -4 -72 -28 -99 -55 -62 -174 -107 -287 -107 -76 0 -83 2 -142 39
-74 46 -87 74 -81 170 3 54 8 68 33 94 16 16 32 30 37 30 4 0 31 11 60 24 29
13 60 26 68 29 26 9 178 7 205 -3z"/>
<path d="M16210 18989 c-24 -70 -18 -69 -250 -69 -180 0 -213 2 -239 17 -29
17 -32 17 -60 0 -20 -11 -50 -17 -95 -17 -37 0 -66 -4 -66 -10 0 -5 9 -10 20
-10 11 0 20 -4 20 -10 0 -5 23 -17 51 -27 35 -12 55 -27 65 -45 22 -42 33 -43
64 -7 l28 34 237 5 237 5 24 28 c18 21 24 40 24 76 0 78 -38 97 -60 30z"/>
<path d="M18566 18943 c-4 -4 -86 -10 -182 -14 -164 -6 -176 -7 -199 -29 -35
-33 -33 -55 3 -45 15 5 59 9 99 9 43 1 77 6 84 14 31 30 139 8 176 -36 11 -13
13 -13 18 4 4 10 13 33 22 51 18 38 4 71 -21 46z"/>
<path d="M15842 18645 c-79 -24 -117 -60 -159 -145 -28 -57 -28 -75 -2 -146
45 -119 68 -139 208 -184 75 -24 96 -25 153 -6 24 8 62 19 85 26 40 10 87 48
126 100 27 37 27 207 -1 250 -18 28 -92 100 -103 100 -4 0 -14 3 -23 6 -12 5
-16 0 -16 -19 0 -18 9 -31 29 -43 53 -31 79 -118 60 -198 -14 -58 -46 -97
-104 -131 -64 -36 -109 -39 -145 -8 l-31 26 -23 -22 c-28 -27 -54 -27 -110 1
-34 16 -50 33 -70 72 -31 61 -32 85 -7 134 44 84 114 125 172 102 16 -7 33
-10 37 -6 13 14 7 87 -8 96 -18 12 -15 12 -68 -5z"/>
<path d="M19165 18531 c-22 -11 -49 -28 -61 -38 -32 -28 -70 -101 -94 -181
-17 -58 -31 -83 -65 -119 -38 -39 -48 -44 -72 -38 -54 13 -82 80 -68 161 10
54 29 80 68 93 19 7 40 23 48 37 12 23 11 27 -6 41 -19 13 -84 12 -138 -4 -28
-8 -47 -63 -54 -162 -8 -116 12 -178 75 -229 35 -28 54 -36 97 -40 74 -6 95 1
145 50 42 41 64 85 117 236 26 73 88 101 154 69 39 -18 49 -38 49 -102 0 -87
-45 -157 -113 -176 -35 -9 -37 -12 -37 -49 l0 -40 43 1 c23 0 59 3 80 7 37 7
39 10 72 92 29 70 35 96 35 160 0 56 -5 82 -17 100 -10 14 -25 38 -33 55 -37
73 -152 112 -225 76z"/>
<path d="M18526 18430 c-35 -18 -62 -20 -255 -21 -119 -1 -245 -4 -281 -8 -56
-5 -65 -9 -68 -27 -7 -52 64 -71 114 -31 27 21 39 22 237 25 l208 4 54 -27
c29 -15 58 -24 64 -21 14 9 14 81 1 107 -13 24 -25 23 -74 -1z"/>
<path d="M17571 18184 c-44 -24 -45 -24 -350 -24 -337 0 -351 -2 -351 -58 0
-28 29 -127 43 -149 5 -8 29 -13 56 -13 39 0 56 6 86 30 l38 30 224 0 224 0
58 -32 c52 -28 62 -31 85 -20 26 11 26 13 26 117 0 59 -5 115 -10 126 -15 27
-74 24 -129 -7z"/>
<path d="M16528 18134 c-38 -20 -46 -58 -21 -92 27 -36 79 -41 116 -12 34 27
35 63 2 95 -27 28 -57 31 -97 9z"/>
<path d="M18540 18137 c0 -7 7 -22 15 -33 19 -26 19 -106 -1 -146 -9 -18 -34
-48 -56 -67 -41 -36 -43 -36 -179 -30 -26 1 -55 -1 -65 -5 -16 -6 -13 -10 20
-27 63 -30 162 -26 234 10 47 24 61 37 80 75 32 67 30 130 -8 189 -31 49 -40
56 -40 34z"/>
<path d="M15688 18046 c-28 -20 -22 -63 14 -109 36 -45 37 -64 7 -114 -16 -26
-18 -35 -8 -57 14 -30 22 -31 79 -11 61 21 385 21 436 0 20 -8 40 -12 45 -9
11 7 12 104 1 122 -7 10 -15 9 -40 -4 -52 -26 -211 -40 -302 -26 -90 13 -175
51 -185 83 -4 11 -4 41 0 66 4 29 2 49 -6 59 -14 17 -19 17 -41 0z"/>
<path d="M18753 17965 c-34 -24 -39 -76 -13 -127 12 -24 32 -53 43 -66 l22
-24 -34 -27 -34 -28 15 -59 c16 -68 20 -69 123 -40 71 19 424 23 489 5 34 -9
42 -9 52 6 15 20 16 134 2 153 -14 17 -53 15 -68 -3 -10 -12 -47 -15 -218 -15
-191 0 -207 1 -239 21 -44 27 -54 55 -47 127 5 47 3 61 -10 75 -22 21 -55 22
-83 2z"/>
<path d="M17304 17746 c-80 -27 -200 -134 -219 -196 -4 -14 -12 -34 -19 -45
-7 -11 -18 -39 -24 -62 -7 -24 -17 -43 -22 -43 -5 0 -14 -19 -20 -42 -18 -70
-50 -139 -96 -209 -38 -58 -50 -68 -88 -79 -60 -16 -103 -5 -147 39 -48 50
-64 98 -64 201 1 109 16 152 77 216 40 43 60 55 113 70 70 20 95 48 75 85 -12
22 -39 24 -145 9 -174 -25 -200 -41 -201 -129 0 -31 -9 -102 -19 -159 -17 -91
-17 -112 -6 -180 7 -42 19 -93 25 -113 20 -56 82 -125 145 -160 50 -27 65 -31
136 -31 51 0 93 6 117 16 38 16 158 130 158 150 0 6 14 31 30 55 17 24 30 51
30 60 0 9 16 55 36 101 20 47 46 109 57 139 11 30 42 76 67 104 l46 51 83 0
c82 1 83 1 116 -35 100 -110 100 -322 0 -453 -30 -40 -112 -94 -155 -103 -68
-13 -93 -94 -33 -109 36 -9 224 24 246 44 9 8 17 24 17 35 0 10 10 33 23 50
66 93 100 275 78 417 -22 146 -65 213 -178 276 -54 30 -78 37 -132 40 -38 2
-84 -3 -107 -10z"/>
<path d="M18539 17658 c-86 -95 -197 -188 -226 -188 -36 0 -70 27 -87 70 -28
69 -135 103 -194 62 -15 -10 -34 -21 -43 -25 -17 -6 -49 -86 -49 -121 1 -19 3
-18 24 7 29 36 105 87 129 87 10 0 44 -14 77 -30 57 -29 60 -32 76 -88 9 -31
22 -63 29 -71 11 -11 15 -9 28 14 14 28 48 56 137 114 161 106 181 128 166
186 -9 35 -23 31 -67 -17z"/>
<path d="M16200 17606 c0 -8 4 -18 10 -21 6 -4 2 -21 -10 -45 -17 -34 -25 -40
-64 -45 -24 -4 -123 -5 -219 -4 -157 4 -177 6 -196 24 -22 19 -22 19 -58 0
-26 -14 -56 -20 -101 -20 -82 0 -92 -18 -20 -35 57 -14 95 -34 116 -62 17 -23
28 -23 61 1 25 18 49 20 265 23 l238 3 24 28 c31 36 34 124 6 150 -23 21 -52
22 -52 3z"/>
<path d="M18950 17450 c-101 -20 -174 -83 -210 -181 -25 -67 -24 -141 4 -194
9 -16 16 -36 16 -42 0 -21 90 -111 134 -135 37 -20 55 -22 176 -22 125 0 139
2 190 27 65 31 113 78 129 126 6 19 19 43 29 54 13 14 17 37 17 91 0 65 -4 77
-41 141 -33 56 -53 77 -95 102 -60 36 -87 41 -95 18 -8 -20 15 -75 30 -75 23
0 56 -46 76 -105 l20 -59 -20 -62 c-18 -53 -27 -66 -73 -97 -64 -44 -141 -67
-159 -49 -9 9 -14 75 -18 228 -5 199 -7 217 -24 230 -21 15 -32 16 -86 4z m16
-144 c16 -12 19 -29 22 -126 5 -141 -2 -178 -31 -185 -32 -8 -72 9 -112 49
-34 34 -35 38 -35 109 0 62 4 78 25 107 42 57 91 74 131 46z"/>
<path d="M17934 17252 l1 -103 295 1 c201 0 306 -3 329 -11 27 -9 35 -9 42 2
11 18 11 60 -1 79 -8 12 -12 12 -36 0 -19 -11 -60 -15 -134 -15 -93 0 -111 3
-130 20 -22 19 -22 19 -60 -3 -33 -18 -53 -22 -127 -21 -141 2 -162 13 -173
95 -7 51 -8 45 -6 -44z"/>
<path d="M15954 17192 c-58 -37 -121 -122 -144 -197 -13 -38 -31 -86 -40 -105
-75 -152 -74 -151 -119 -171 -24 -10 -52 -19 -62 -19 -25 0 -99 39 -99 53 0 6
-8 19 -17 29 -13 14 -17 39 -17 111 0 104 20 160 71 192 15 10 32 24 36 32 4
7 19 13 32 13 16 0 25 6 25 16 0 11 -5 14 -16 10 -9 -3 -44 -6 -79 -6 -78 0
-95 -14 -95 -76 0 -25 -7 -61 -15 -81 -21 -51 -19 -157 5 -219 39 -105 121
-154 228 -139 43 6 59 15 105 58 36 35 60 68 72 102 10 28 24 57 31 65 7 8 16
29 20 45 11 46 55 155 63 155 4 0 21 14 38 30 58 57 139 62 186 12 14 -15 37
-51 52 -80 25 -48 27 -60 23 -128 -3 -42 -10 -79 -16 -83 -6 -4 -18 -22 -26
-41 -17 -41 -51 -75 -86 -85 -34 -10 -90 -45 -90 -56 0 -25 168 3 178 29 3 10
19 33 34 53 36 45 53 146 44 261 -6 92 -26 133 -92 191 -46 40 -50 42 -123 45
-61 2 -82 -1 -107 -16z"/>
<path d="M20136 17087 c-16 -11 -17 -17 -7 -36 9 -15 12 -84 10 -228 -2 -227
-1 -232 61 -218 36 8 36 8 9 44 -19 26 -20 39 -17 216 2 140 6 189 16 193 20
6 14 29 -10 36 -33 8 -42 7 -62 -7z"/>
<path d="M20430 17046 c0 -8 16 -33 35 -56 39 -47 49 -85 43 -174 -3 -52 -9
-69 -36 -103 -34 -44 -40 -63 -18 -63 53 0 114 132 102 223 -10 72 -52 162
-82 176 -33 15 -44 14 -44 -3z"/>
<path d="M20897 16903 c-4 -3 -7 -13 -7 -22 0 -9 -9 -27 -20 -41 -21 -26 -28
-114 -11 -125 5 -3 12 -19 16 -35 9 -39 46 -67 102 -76 55 -8 123 10 123 32 0
11 -5 14 -17 9 -43 -17 -93 -17 -118 -1 -32 21 -85 94 -85 117 0 28 60 42 169
38 l96 -4 -2 28 c-2 33 -39 87 -60 87 -12 0 -13 -8 -8 -39 5 -33 3 -41 -14
-50 -25 -14 -101 -14 -135 -1 -26 10 -36 43 -16 55 6 3 10 13 10 21 0 15 -12
19 -23 7z"/>
<path d="M18680 16751 c-8 -5 -31 -12 -50 -16 -41 -9 -115 -65 -134 -103 -31
-62 -46 -189 -46 -387 0 -131 4 -196 11 -201 6 -3 15 -1 19 6 18 30 122 40
412 40 320 0 434 -10 460 -40 19 -23 51 -26 66 -7 9 10 10 106 3 194 -1 7 -12
20 -26 29 -23 15 -27 14 -87 -16 -55 -28 -75 -32 -160 -36 -90 -3 -100 -2
-118 19 -27 29 -29 39 -32 197 -3 133 -3 136 -35 184 -18 26 -33 51 -35 55 -2
5 -22 20 -45 34 -62 39 -174 66 -203 48z m103 -151 c21 0 42 -13 77 -48 45
-45 48 -52 55 -115 4 -37 5 -95 3 -129 -7 -93 -15 -97 -194 -95 -140 2 -147 3
-165 26 -45 55 -12 265 51 326 29 28 88 46 125 39 11 -2 33 -4 48 -4z"/>
<path d="M19840 16470 c-80 -3 -150 -8 -156 -12 -9 -6 -8 -18 2 -45 17 -50 20
-693 3 -743 -9 -26 -9 -34 2 -41 8 -5 100 -9 205 -9 236 0 305 14 383 80 49
41 63 64 126 205 27 60 25 222 -5 290 -94 220 -148 257 -390 278 -14 1 -90 0
-170 -3z m293 -84 c70 -34 110 -78 143 -156 22 -54 28 -84 32 -176 4 -108 3
-113 -28 -185 -46 -105 -61 -122 -142 -164 -67 -34 -81 -38 -179 -42 l-106 -5
-26 28 -27 29 0 332 c0 411 -14 378 162 370 100 -4 127 -9 171 -31z"/>
<path d="M14882 16372 c-10 -7 -13 -71 -13 -287 -1 -245 1 -279 15 -287 9 -5
25 -7 34 -3 17 5 18 16 15 113 -3 96 -2 109 16 130 33 38 80 34 135 -12 46
-37 136 -146 136 -164 0 -16 69 -72 90 -72 59 0 65 28 12 67 -48 35 -162 167
-162 186 0 8 22 30 49 48 28 19 59 52 72 76 l23 43 -19 55 c-20 60 -30 69 -88
80 -45 9 -46 1 -8 -46 44 -53 48 -84 20 -135 -26 -49 -48 -59 -144 -70 -45 -4
-71 -2 -99 10 l-38 16 4 101 c3 92 5 102 27 120 13 11 21 22 18 25 -10 10 -82
15 -95 6z"/>
<path d="M21610 16355 c-5 -14 -10 -39 -10 -54 0 -27 -20 -53 -50 -63 -9 -3
-22 -18 -30 -33 -16 -29 -15 -30 37 -61 16 -10 18 -32 23 -236 5 -244 11 -267
66 -288 61 -23 130 -3 122 36 -3 14 -11 18 -31 16 -21 -2 -31 4 -47 30 -18 30
-20 51 -20 234 0 150 3 204 13 212 7 6 30 12 52 14 54 4 56 32 3 36 -48 4 -61
26 -68 112 -4 58 -7 65 -27 68 -17 3 -26 -3 -33 -23z"/>
<path d="M21079 16200 c-81 -14 -126 -47 -161 -119 -30 -59 -32 -70 -32 -175
-1 -97 2 -116 21 -151 55 -98 119 -135 244 -143 69 -4 81 -2 120 22 45 26 106
92 109 117 7 48 -26 54 -52 9 -9 -16 -38 -43 -65 -60 -40 -26 -56 -30 -94 -27
-70 6 -119 36 -161 100 -37 55 -52 125 -34 155 5 9 65 12 200 12 179 0 194 1
211 20 14 15 16 29 11 61 -8 52 -57 129 -95 152 -24 14 -138 39 -166 36 -5 -1
-31 -5 -56 -9z m106 -40 c28 -6 51 -22 77 -52 47 -54 48 -82 6 -108 -28 -17
-51 -20 -155 -20 -111 0 -123 2 -133 19 -19 36 -11 65 30 110 51 55 98 69 175
51z"/>
<path d="M20612 16188 c-29 -8 -32 -12 -32 -46 0 -21 8 -49 18 -62 22 -32 30
-262 12 -337 -7 -26 -13 -64 -14 -83 l-1 -35 61 -3 c81 -4 92 8 70 80 -11 39
-17 111 -20 268 -2 118 -5 216 -5 216 -4 7 -64 8 -89 2z"/>
<path d="M15483 16183 c-16 -6 -18 -287 -4 -326 15 -39 51 -67 87 -67 41 0 53
17 20 30 -35 13 -46 62 -46 210 0 69 -4 130 -8 136 -9 14 -34 22 -49 17z"/>
<path d="M16130 16180 c-13 -8 -13 -10 0 -14 8 -3 24 -6 34 -8 10 -2 24 -12
30 -23 6 -11 18 -25 26 -31 12 -10 15 -41 16 -158 0 -81 4 -149 8 -153 4 -4
14 -3 24 3 14 9 16 29 14 150 -4 191 -6 201 -53 224 -41 22 -75 25 -99 10z"/>
<path d="M16605 16181 c-7 -12 1 -17 43 -26 17 -3 32 -11 32 -17 0 -5 9 -23
21 -39 19 -28 21 -41 18 -162 l-4 -132 25 0 25 0 0 145 c0 162 -7 183 -68 220
-34 21 -82 26 -92 11z"/>
<path d="M17130 16175 c-8 -10 -10 -25 -5 -42 5 -16 10 -96 12 -180 3 -124 7
-152 19 -157 25 -9 57 13 48 32 -5 9 -10 58 -12 108 -3 73 1 100 17 142 12 29
21 55 21 57 0 6 -73 55 -81 55 -4 0 -12 -7 -19 -15z"/>
<path d="M17315 16180 c-5 -9 33 -30 53 -30 4 0 16 -17 27 -37 17 -32 20 -56
19 -175 0 -124 1 -138 17 -138 24 0 40 22 29 40 -6 8 -10 76 -10 151 0 142 -2
151 -50 183 -27 18 -75 21 -85 6z"/>
<path d="M17900 16175 c-7 -8 -19 -15 -26 -15 -18 0 -18 -31 1 -66 20 -38 19
-130 -1 -203 -16 -56 -16 -62 0 -96 15 -32 16 -46 7 -98 -6 -33 -8 -63 -5 -66
3 -3 17 1 32 10 l27 15 5 254 c3 140 3 261 1 268 -4 17 -26 15 -41 -3z"/>
<path d="M15746 16074 c5 -72 3 -127 -6 -174 -12 -64 -12 -72 5 -90 38 -42 94
-13 65 33 -8 14 -13 69 -15 167 -1 81 -5 152 -9 158 -4 7 -16 12 -27 12 -19 0
-19 -5 -13 -106z"/>
<path d="M15950 16165 c-11 -13 -10 -21 1 -43 9 -18 14 -73 15 -170 1 -147 9
-177 38 -153 11 9 13 28 9 85 -8 104 4 199 28 228 l20 23 -28 22 c-33 27 -65
29 -83 8z"/>
<path d="M16427 16173 c-2 -5 -2 -90 1 -190 4 -191 7 -202 51 -188 14 4 16 25
16 142 1 119 3 143 20 171 l20 33 -25 19 c-25 19 -75 27 -83 13z"/>
<path d="M16909 16164 c-10 -12 -10 -24 0 -65 9 -33 12 -95 10 -177 l-4 -127
31 -3 c42 -4 55 14 44 63 -5 22 -10 104 -10 183 l0 142 -29 0 c-16 0 -34 -7
-42 -16z"/>
<path d="M17623 16108 c-39 -58 -45 -170 -14 -234 25 -49 74 -84 120 -84 41 0
39 13 -5 39 -69 41 -102 181 -61 260 36 71 4 86 -40 19z"/>
<path d="M15930 15448 c-52 -14 -100 -78 -100 -133 0 -41 -2 -44 -35 -55 -24
-8 -35 -18 -35 -31 0 -10 7 -19 15 -19 8 0 24 -9 36 -21 19 -19 20 -30 18
-210 -2 -123 1 -193 8 -200 15 -15 74 -7 87 13 7 12 7 30 -2 63 -14 53 -16
283 -3 318 7 17 20 26 45 31 46 9 51 42 9 51 -51 11 -58 20 -56 70 1 27 7 52
15 57 7 5 43 6 80 3 70 -6 84 0 73 34 -11 37 -80 50 -155 29z"/>
<path d="M15013 15442 c-60 -4 -72 -20 -43 -60 20 -27 21 -40 17 -277 -2 -138
-7 -263 -12 -279 -14 -51 5 -56 221 -56 l193 0 20 29 c12 16 21 34 21 39 0 18
-31 22 -60 7 -21 -11 -61 -15 -143 -15 -98 0 -116 3 -130 18 -15 16 -17 50
-17 264 0 234 1 247 21 272 37 48 13 64 -88 58z"/>
<path d="M17833 15440 c-28 -11 -30 -54 -7 -123 21 -63 17 -430 -6 -464 -11
-17 -12 -29 -4 -50 9 -26 13 -28 64 -28 51 0 55 2 64 28 8 21 6 40 -7 76 -14
41 -17 88 -17 290 0 228 -1 242 -20 261 -22 22 -33 23 -67 10z"/>
<path d="M19041 15441 c-18 -5 -36 -13 -40 -19 -3 -5 -24 -18 -46 -30 -49 -24
-75 -52 -110 -116 -25 -45 -27 -57 -27 -166 0 -110 2 -122 30 -181 43 -92 118
-147 230 -169 83 -17 160 -6 207 28 84 62 96 76 102 120 8 57 -6 54 -71 -12
-76 -78 -155 -95 -257 -57 -101 39 -149 127 -149 273 0 93 22 162 68 210 54
56 91 70 190 70 84 0 87 -1 112 -32 56 -69 90 -101 100 -95 13 8 13 85 0 119
-7 19 -17 26 -35 26 -14 0 -42 7 -63 16 -43 18 -192 27 -241 15z"/>
<path d="M19546 15441 c-18 -7 -19 -20 -17 -315 1 -170 7 -320 12 -333 7 -20
15 -24 41 -21 l33 3 5 170 c6 189 11 207 67 230 45 19 106 5 125 -28 9 -15 14
-77 16 -186 2 -172 7 -191 47 -191 44 0 48 18 43 207 -3 98 -8 186 -12 195 -4
9 -28 33 -53 52 -36 28 -55 36 -88 36 -27 0 -48 -6 -56 -16 -7 -9 -24 -20 -37
-25 -43 -17 -52 3 -52 112 0 98 0 100 -26 109 -14 6 -26 10 -27 9 -1 0 -11 -4
-21 -8z"/>
<path d="M17097 15375 c-9 -9 -17 -26 -17 -38 0 -30 -26 -66 -56 -77 -29 -11
-32 -46 -5 -55 27 -8 31 -32 31 -198 0 -117 4 -156 16 -183 21 -44 50 -64 90
-64 50 0 64 9 64 41 0 23 -5 30 -27 35 -16 3 -34 7 -40 10 -15 4 -20 106 -14
297 0 28 6 49 14 51 6 3 25 7 40 11 22 4 28 11 25 28 -2 18 -11 23 -40 25 -40
3 -42 6 -39 67 1 17 -4 38 -12 49 -12 17 -14 17 -30 1z"/>
<path d="M16160 15203 c-58 -55 -61 -61 -72 -124 -6 -39 -8 -98 -4 -142 l7
-74 53 -46 c103 -88 214 -90 284 -4 24 30 32 48 30 70 -4 39 -24 46 -39 13
-27 -58 -115 -82 -182 -50 -44 21 -91 111 -77 148 12 33 32 38 167 35 138 -3
167 3 160 34 -21 85 -41 120 -93 158 -48 35 -59 39 -113 39 -59 0 -61 -1 -121
-57z m181 -16 c23 -18 44 -86 30 -100 -6 -6 -49 -11 -102 -11 -100 0 -116 8
-93 53 29 56 124 90 165 58z"/>
<path d="M16644 15221 c-58 -46 -71 -81 -52 -142 12 -43 30 -57 103 -84 28
-10 75 -35 105 -55 70 -47 78 -78 27 -109 -19 -11 -49 -21 -68 -21 -33 0 -99
38 -130 74 -22 27 -49 14 -49 -23 0 -51 44 -86 126 -101 95 -17 145 -1 192 59
48 64 50 83 11 137 -19 26 -41 50 -49 54 -8 4 -49 22 -90 41 -71 31 -120 68
-120 90 0 6 13 24 29 40 40 39 85 39 136 -1 21 -17 43 -38 50 -47 17 -23 35
-8 35 30 -1 20 -10 43 -26 61 -24 27 -33 30 -102 34 l-77 4 -51 -41z"/>
<path d="M17313 15250 c-26 -11 -29 -36 -9 -65 7 -11 16 -33 20 -49 4 -17 32
-81 62 -143 30 -62 54 -116 54 -120 1 -5 9 -26 20 -48 25 -51 24 -60 -8 -120
-29 -52 -60 -75 -103 -75 -39 0 -56 -25 -35 -49 49 -54 136 -16 180 78 47 105
86 199 86 213 0 7 9 28 20 46 11 18 20 41 20 51 0 10 9 29 19 43 11 13 24 44
31 68 7 25 21 64 32 88 24 54 20 76 -13 80 -32 4 -42 -9 -59 -73 -25 -97 -62
-200 -78 -218 -9 -10 -25 -17 -36 -15 -32 5 -95 139 -96 203 0 45 -19 105 -33
105 -7 0 -21 2 -32 5 -11 2 -30 0 -42 -5z"/>
<path d="M18168 15240 c-12 -10 -35 -29 -50 -42 -49 -42 -78 -112 -78 -192 0
-105 12 -134 75 -189 98 -86 206 -88 282 -6 51 54 57 67 43 85 -18 21 -39 17
-51 -10 -14 -29 -69 -56 -116 -56 -75 0 -146 72 -141 142 4 53 12 56 184 57
159 1 164 4 137 82 -17 50 -40 79 -97 127 -38 30 -152 32 -188 2z m150 -56
c28 -20 54 -68 46 -88 -7 -17 -55 -21 -187 -17 -101 3 -17 117 88 120 17 1 41
-6 53 -15z"/>
<path d="M20124 15230 c-22 -16 -45 -34 -51 -40 -18 -15 -16 -65 2 -80 19 -15
45 5 81 63 20 30 30 37 56 37 40 0 95 -37 107 -71 10 -30 3 -46 -30 -63 -36
-18 -36 -45 0 -57 38 -14 48 -47 32 -106 -19 -73 -37 -93 -83 -93 -40 0 -106
25 -120 44 -24 34 21 103 80 127 13 5 22 15 20 22 -6 17 -68 20 -97 5 -22 -12
-81 -82 -97 -116 -11 -22 5 -56 45 -99 38 -41 43 -43 95 -43 47 0 60 4 89 30
42 37 59 38 90 4 34 -36 81 -31 85 10 2 16 -1 39 -7 50 -5 12 -11 88 -14 170
l-3 149 -47 43 c-46 44 -46 44 -120 44 -67 0 -78 -3 -113 -30z"/>
<path d="M20717 15232 c-37 -30 -39 -30 -79 -16 -22 7 -51 11 -64 8 -41 -10
-46 -26 -28 -95 13 -50 15 -92 11 -193 -3 -77 -2 -137 4 -148 11 -20 58 -25
76 -7 6 6 9 61 6 152 -3 115 -1 147 11 167 8 14 20 35 25 46 7 17 22 24 60 29
65 9 85 1 111 -41 20 -32 22 -45 19 -187 -2 -83 0 -158 4 -164 5 -7 22 -13 38
-13 36 0 54 35 39 76 -6 14 -10 77 -10 140 0 143 -12 192 -55 234 -26 25 -45
34 -82 37 -42 4 -53 1 -86 -25z"/>
<path d="M21166 15225 c-26 -18 -60 -50 -75 -70 -25 -36 -26 -44 -26 -160 l0
-123 53 -50 c62 -60 110 -72 191 -51 65 16 81 5 81 -60 0 -61 -48 -121 -96
-121 -34 0 -125 65 -145 102 -10 18 -13 19 -26 5 -11 -11 -13 -25 -8 -55 8
-48 14 -54 79 -76 61 -20 125 -20 150 -1 11 8 30 15 43 15 15 0 33 14 53 42
l30 41 0 263 c0 144 -3 269 -6 278 -5 12 -20 16 -59 16 -39 0 -56 5 -70 20
-30 34 -109 27 -169 -15z m176 -47 c10 -13 27 -42 39 -66 39 -80 10 -232 -53
-276 -30 -22 -63 -20 -113 5 -57 29 -79 89 -73 197 6 94 18 120 66 150 47 29
107 24 134 -10z"/>
<path d="M21729 15252 c-25 -11 -100 -85 -114 -112 -18 -36 -27 -140 -19 -212
7 -59 10 -66 58 -110 68 -63 156 -85 223 -56 62 27 121 114 95 140 -14 14 -43
2 -49 -21 -6 -24 -64 -51 -110 -51 -69 0 -143 74 -143 144 0 51 20 57 171 54
121 -2 142 0 157 15 16 17 16 20 -4 55 -12 20 -24 49 -27 63 -4 17 -26 40 -59
63 -46 31 -61 36 -108 35 -30 0 -62 -3 -71 -7z m131 -67 c6 -8 20 -30 30 -49
15 -30 15 -37 4 -47 -11 -9 -96 -14 -182 -10 -49 2 -34 74 21 102 42 21 111
24 127 4z"/>
<path d="M15558 15218 c-32 -11 -35 -29 -13 -81 18 -44 21 -241 4 -298 -9 -30
-9 -42 1 -54 15 -18 85 -20 96 -3 11 17 4 395 -7 424 -9 26 -34 30 -81 12z"/>
<path d="M3950 15128 c-81 -29 -120 -73 -120 -136 0 -37 79 -129 118 -139 70
-17 149 -56 179 -88 49 -52 44 -84 -20 -116 -32 -17 -54 -20 -109 -17 -62 3
-71 7 -94 33 -13 17 -31 42 -39 58 -19 34 -33 35 -41 2 -10 -42 3 -69 53 -105
46 -33 53 -35 143 -38 110 -3 129 4 172 64 55 77 32 171 -51 207 -25 11 -53
25 -61 32 -8 6 -42 22 -75 35 -77 29 -97 51 -93 104 3 36 8 43 38 58 65 31
102 24 163 -32 74 -67 94 -64 74 10 -13 49 -25 60 -62 60 -18 0 -52 7 -75 15
-23 8 -43 14 -44 14 0 -1 -26 -10 -56 -21z"/>
<path d="M5606 15117 c-15 -11 -17 -21 -11 -48 13 -60 17 -370 5 -417 -13 -54
-2 -72 45 -72 43 0 59 21 50 62 -4 18 -10 130 -12 247 -2 134 -8 220 -15 228
-14 17 -39 17 -62 0z"/>
<path d="M6598 15008 c-31 -36 -35 -64 -14 -93 9 -14 15 -63 18 -163 3 -128 6
-146 23 -158 23 -17 76 -18 98 -1 20 14 12 28 -25 44 -34 15 -41 50 -36 178 2
72 7 99 18 105 47 28 47 28 7 63 -20 19 -37 40 -37 46 0 21 -25 11 -52 -21z"/>
<path d="M4690 14966 c-9 -12 -3 -23 35 -59 l46 -45 -2 -131 c-2 -140 5 -166
39 -145 15 10 17 26 14 120 -3 103 -2 112 25 164 28 54 29 55 68 52 71 -7 75
-16 75 -177 0 -156 6 -173 55 -161 l25 6 0 135 c0 156 -13 203 -65 235 -46 29
-89 26 -110 -6 -15 -23 -22 -26 -53 -20 -20 3 -49 15 -64 26 -32 23 -71 26
-88 6z"/>
<path d="M5326 14961 c-17 -19 -16 -20 28 -39 36 -16 49 -29 65 -66 42 -91 20
-195 -49 -231 -35 -18 -38 -31 -11 -40 24 -7 71 4 71 17 0 5 12 20 26 35 35
35 44 63 44 141 0 98 -13 131 -65 170 -50 36 -84 41 -109 13z"/>
<path d="M6093 14959 c-23 -11 -58 -41 -78 -67 -36 -46 -37 -49 -33 -122 2
-58 7 -80 23 -96 11 -11 27 -34 36 -51 17 -32 48 -43 118 -43 38 0 81 23 81
42 0 7 10 23 23 36 l22 25 -51 -27 c-46 -25 -55 -27 -92 -17 -54 15 -69 31
-88 98 -15 52 -15 60 2 116 15 49 23 62 50 74 43 21 79 10 107 -32 27 -43 60
-44 65 -3 3 21 -5 32 -42 57 -52 36 -85 39 -143 10z"/>
<path d="M6812 14964 c-28 -19 -28 -33 3 -88 14 -25 25 -50 25 -57 0 -13 28
-77 66 -150 33 -65 32 -118 -4 -152 -18 -17 -39 -27 -58 -27 -38 0 -52 -14
-46 -46 7 -37 29 -40 79 -13 39 21 49 35 89 117 25 52 51 119 59 150 8 30 21
62 29 71 7 9 17 30 21 48 3 18 15 50 26 72 22 47 23 57 7 63 -19 7 -38 -2 -38
-17 0 -8 -9 -29 -19 -47 -11 -18 -23 -51 -26 -73 -7 -36 -56 -105 -76 -105 -4
0 -12 21 -18 48 -5 26 -19 65 -31 87 -11 21 -20 52 -20 68 0 34 -16 67 -33 67
-7 0 -23 -7 -35 -16z"/>
<path d="M4335 14946 c-18 -13 -19 -17 -5 -63 22 -76 25 -178 5 -230 -20 -53
-9 -73 39 -73 52 0 62 12 48 58 -7 22 -12 94 -12 161 0 108 -2 123 -20 141
-24 24 -30 24 -55 6z"/>
<path d="M4534 14948 c-5 -7 -7 -92 -4 -188 l5 -175 26 -3 c40 -5 51 16 39 79
-11 57 -7 131 13 213 11 45 10 49 -12 67 -27 22 -55 25 -67 7z"/>
<path d="M5816 14953 c-16 -4 -17 -11 -11 -66 7 -57 8 -159 2 -262 -2 -39 -1
-40 34 -43 51 -4 61 12 49 83 -5 32 -9 106 -9 163 0 125 -7 140 -65 125z"/>
<path d="M5177 14935 c-10 -25 -8 -488 2 -503 5 -8 21 -12 37 -10 29 3 29 4
34 78 l5 74 38 9 c44 11 46 19 10 38 -37 18 -41 25 -53 86 -13 59 1 162 27
201 8 13 13 26 10 28 -2 3 -27 7 -54 11 -41 4 -51 2 -56 -12z"/>
<path d="M6384 14936 c-3 -8 -1 -38 5 -66 14 -65 14 -174 0 -223 -12 -46 0
-67 40 -67 52 0 55 8 42 116 -7 55 -13 133 -14 174 l-2 75 -33 3 c-22 2 -34
-2 -38 -12z"/>
<path d="M23170 14658 c0 -7 4 -30 9 -51 12 -49 -5 -103 -33 -111 -12 -3 -65
-6 -119 -6 -115 0 -121 -9 -36 -53 41 -21 63 -27 90 -23 46 7 89 29 120 62 21
22 24 35 23 96 0 57 -4 73 -19 84 -23 17 -35 18 -35 2z"/>
<path d="M20042 14441 c-34 -5 -63 -10 -65 -12 -1 -2 0 -116 3 -254 5 -242 6
-250 25 -250 19 0 20 7 21 103 0 64 5 107 12 114 16 16 15 40 -3 74 -15 29
-20 110 -9 151 9 32 66 47 147 39 57 -6 67 -11 88 -39 50 -66 20 -159 -56
-174 -52 -11 -57 -38 -15 -78 16 -16 30 -32 30 -36 0 -11 64 -103 92 -134 25
-27 58 -31 65 -9 2 6 -18 36 -45 65 -53 58 -92 122 -92 152 0 10 14 26 32 35
59 32 68 47 68 111 0 33 -3 67 -6 75 -4 9 -31 28 -61 42 -61 29 -133 37 -231
25z"/>
<path d="M22924 14328 c-8 -12 -6 -79 2 -87 2 -2 12 3 21 11 34 30 95 41 154
29 84 -18 101 -43 78 -109 -19 -55 -114 -75 -216 -46 -17 5 -23 2 -23 -9 0
-25 52 -55 108 -63 60 -8 99 5 146 48 29 27 31 32 28 94 -3 75 7 94 49 94 23
0 34 -9 55 -41 23 -37 24 -42 10 -58 -36 -40 -27 -111 10 -80 11 9 14 32 12
102 -4 126 -4 125 -245 126 -134 1 -184 -2 -189 -11z"/>
<path d="M2710 14290 c-13 -8 -13 -14 -1 -42 7 -18 17 -62 22 -97 8 -63 19
-93 19 -54 0 23 29 53 53 53 11 0 18 -12 22 -37 7 -42 37 -127 66 -188 10 -22
25 -60 33 -85 32 -101 44 -125 63 -128 24 -4 53 54 53 103 0 33 -2 35 -35 35
-32 0 -35 3 -46 43 -6 23 -19 62 -29 87 -10 25 -21 59 -25 77 -3 17 -13 37
-20 43 -8 6 -21 36 -30 65 -8 30 -20 57 -25 60 -6 3 -10 17 -10 30 0 14 -8 29
-19 35 -24 12 -71 13 -91 0z"/>
<path d="M3212 14283 c-6 -10 -13 -35 -17 -56 -4 -20 -11 -40 -16 -43 -5 -3
-9 -15 -9 -27 1 -21 1 -21 15 -4 13 18 14 17 32 -9 16 -25 18 -49 17 -209 -1
-99 -3 -191 -5 -205 -4 -23 -1 -25 40 -28 44 -3 44 -3 35 25 -4 15 -9 150 -9
298 l-2 270 -36 3 c-26 2 -38 -2 -45 -15z"/>
<path d="M6104 14290 c-40 -16 -66 -66 -65 -125 1 -78 23 -103 129 -149 194
-83 222 -106 222 -181 0 -36 -4 -47 -22 -56 -13 -7 -35 -22 -49 -33 -22 -19
-34 -21 -90 -16 -56 4 -71 10 -111 43 -25 21 -49 49 -52 62 -10 38 -36 32 -36
-7 0 -47 20 -80 55 -91 17 -6 41 -18 54 -28 17 -14 41 -19 87 -19 139 0 243
101 215 207 -6 22 -23 51 -38 65 -30 28 -144 88 -167 88 -8 0 -21 6 -28 14 -8
7 -27 20 -44 29 -40 20 -64 49 -66 78 -2 29 28 99 51 116 14 11 14 12 -4 12
-11 0 -30 -4 -41 -9z"/>
<path d="M17285 14260 c-3 -10 -1 -29 5 -40 7 -14 11 -109 9 -293 l-1 -272 23
0 c19 0 23 5 20 20 -2 11 -6 67 -8 125 -4 81 -1 118 13 164 17 55 17 60 1 88
-12 21 -17 53 -17 113 0 46 -3 90 -6 99 -9 22 -31 20 -39 -4z"/>
<path d="M20937 14254 c-10 -10 5 -318 16 -332 7 -9 13 -10 24 -1 11 10 12 28
7 81 -4 42 -2 98 6 143 13 74 12 75 -11 94 -26 22 -32 24 -42 15z"/>
<path d="M21793 14248 c-11 -19 -3 -311 9 -325 16 -19 46 -16 53 6 3 10 1 38
-4 62 -6 24 -11 89 -11 145 0 64 -4 104 -12 112 -15 15 -25 15 -35 0z"/>
<path d="M22649 14243 c0 -5 -1 -110 -1 -235 0 -126 -4 -230 -9 -233 -5 -3
-31 -9 -59 -12 -43 -5 -56 -2 -80 16 -47 34 -64 26 -35 -16 14 -20 24 -22 89
-21 67 0 76 3 105 30 l31 29 0 205 c0 195 -6 244 -30 244 -6 0 -10 -3 -11 -7z"/>
<path d="M17057 14214 c-2 -5 -8 -24 -12 -42 -4 -18 -19 -44 -33 -57 -25 -24
-26 -26 -12 -62 9 -26 15 -88 16 -190 2 -167 12 -201 66 -224 23 -9 32 -8 53
5 31 20 24 36 -15 36 -16 0 -32 5 -36 12 -4 6 -7 123 -7 258 1 221 -4 290 -20
264z"/>
<path d="M6632 14201 c-13 -8 -29 -32 -48 -70 -4 -8 0 -36 9 -62 13 -35 17
-81 17 -186 0 -133 1 -141 23 -161 28 -26 50 -28 68 -6 12 14 9 20 -16 40 -29
23 -30 26 -33 131 -2 60 1 140 8 178 9 56 9 77 -2 107 -9 27 -17 35 -26 29z"/>
<path d="M14276 14188 c-21 -29 -20 -47 3 -101 31 -72 78 -105 217 -151 27 -9
71 -35 98 -59 39 -34 49 -50 53 -84 7 -50 -21 -96 -70 -117 -26 -11 -29 -15
-15 -21 16 -6 66 12 101 39 13 10 20 33 24 85 6 66 4 73 -22 112 -31 44 -93
81 -171 100 -64 16 -149 68 -180 110 -20 27 -24 41 -20 72 7 43 3 46 -18 15z"/>
<path d="M14894 14175 c-4 -11 -19 -37 -33 -58 -22 -35 -23 -41 -10 -60 10
-16 15 -65 17 -189 l4 -168 28 -31 c23 -24 36 -30 62 -27 46 4 44 31 -2 38
l-35 5 -1 225 c-2 220 -12 310 -30 265z"/>
<path d="M4127 14123 c-12 -11 -8 -21 13 -28 10 -3 31 -30 46 -60 25 -52 26
-60 21 -172 -3 -65 -7 -127 -9 -138 -2 -17 3 -20 31 -20 l33 0 -2 135 c-2 203
-14 241 -82 276 -30 16 -41 17 -51 7z"/>
<path d="M3680 14106 c0 -9 9 -33 20 -53 21 -40 18 -80 -8 -99 -13 -9 -12 -14
8 -34 19 -19 22 -29 17 -73 -4 -32 -15 -59 -28 -74 l-22 -23 21 0 c12 0 30
-10 41 -21 34 -37 75 -2 53 44 -6 12 -12 82 -14 154 -3 115 -6 136 -24 160
-24 32 -64 43 -64 19z"/>
<path d="M4614 14108 c24 -61 29 -92 19 -131 -7 -25 -8 -49 -2 -64 14 -38 11
-106 -7 -131 -20 -28 -13 -39 37 -54 48 -14 62 -2 54 47 -2 17 -5 77 -6 135
-2 119 -20 183 -56 199 -32 14 -46 14 -39 -1z"/>
<path d="M6839 14103 c0 -5 -1 -97 -2 -205 l-2 -198 44 0 44 0 -9 33 c-11 41
-11 250 0 301 8 34 6 41 -15 57 -24 19 -58 25 -60 12z"/>
<path d="M3918 14093 c-3 -5 -2 -93 1 -198 l6 -190 35 0 c29 0 35 3 32 20 -12
82 -12 218 0 277 9 40 11 73 6 82 -9 16 -74 23 -80 9z"/>
<path d="M5113 14078 c3 -13 11 -43 17 -68 18 -68 5 -208 -21 -236 l-20 -22
25 -25 c28 -28 34 -74 16 -123 -17 -44 6 -56 36 -19 24 30 24 32 24 250 0 121
-3 230 -6 243 -5 17 -13 22 -41 22 -32 0 -35 -2 -30 -22z"/>
<path d="M7600 14064 c-36 -41 -35 -76 3 -107 27 -22 156 -87 173 -87 15 0 44
-44 44 -68 0 -10 -7 -33 -16 -50 -15 -31 -18 -32 -80 -32 -35 0 -64 4 -64 9 0
15 -63 81 -77 81 -20 0 -15 -48 7 -67 32 -28 102 -52 150 -52 42 0 48 3 93 55
26 31 47 65 47 78 0 49 -132 136 -205 136 -19 0 -42 62 -37 103 2 20 2 37 -1
37 -3 0 -19 -16 -37 -36z"/>
<path d="M5346 14047 c-28 -39 -30 -49 -30 -132 -1 -105 12 -135 83 -191 52
-40 92 -44 152 -14 43 22 79 54 79 70 0 5 -23 1 -50 -10 -28 -11 -62 -20 -76
-20 -38 0 -92 29 -100 53 -4 12 -16 35 -27 51 -20 28 -20 30 -3 59 12 21 14
33 6 41 -15 15 -12 75 5 92 8 9 15 22 15 30 0 26 -25 13 -54 -29z"/>
<path d="M16187 14083 c-13 -12 -7 -22 20 -35 42 -21 54 -79 51 -252 -3 -157
-1 -164 42 -148 23 8 23 10 21 158 -2 172 -13 215 -68 257 -36 27 -54 33 -66
20z"/>
<path d="M17510 14070 c0 -5 13 -16 28 -24 47 -24 53 -53 51 -230 l-2 -161 24
-3 c13 -1 30 2 38 7 13 8 13 12 0 27 -10 12 -15 58 -19 170 l-5 153 -34 35
c-33 34 -81 49 -81 26z"/>
<path d="M4881 14051 c-33 -33 -50 -147 -32 -222 11 -46 64 -114 102 -129 29
-12 79 -7 79 8 0 5 -28 26 -63 48 -61 39 -62 41 -75 102 -13 65 -3 172 20 200
17 20 -9 15 -31 -7z"/>
<path d="M15975 14054 c-6 -2 -9 -77 -8 -201 l2 -198 28 0 c23 0 27 4 23 20
-10 45 -4 281 8 315 12 32 11 36 -9 53 -22 17 -26 19 -44 11z"/>
<path d="M7997 14043 c-13 -13 -7 -61 11 -81 17 -21 147 -92 167 -92 17 0 65
-50 65 -67 0 -8 -9 -31 -21 -49 -20 -33 -23 -34 -84 -34 -46 0 -64 4 -68 14
-6 16 -66 50 -74 43 -12 -13 23 -50 64 -68 67 -28 113 -25 154 11 19 17 42 37
52 45 19 17 23 66 7 95 -17 32 -95 79 -149 91 -51 11 -101 53 -101 85 0 15
-12 19 -23 7z"/>
<path d="M15134 14037 c-2 -7 1 -38 9 -68 22 -85 22 -242 1 -274 -20 -31 -9
-48 27 -43 19 2 23 8 20 28 -12 84 -11 221 2 276 9 39 11 67 5 77 -11 20 -56
23 -64 4z"/>
<path d="M16774 14035 c-4 -8 2 -44 11 -78 15 -55 15 -74 6 -138 -7 -40 -18
-87 -26 -102 -13 -26 -12 -31 6 -57 17 -22 20 -38 17 -86 -2 -33 -8 -67 -12
-76 -13 -30 20 -22 41 10 17 25 18 49 17 272 -1 135 -2 251 -3 258 -1 17 -50
15 -57 -3z"/>
<path d="M7126 13993 c-23 -105 -2 -193 59 -253 43 -42 50 -45 98 -45 54 1 99
22 154 73 37 35 20 39 -36 9 -89 -49 -172 -28 -215 55 -24 47 -25 53 -12 79
13 25 13 33 0 57 -7 15 -14 33 -14 40 0 24 -29 12 -34 -15z"/>
<path d="M15477 14013 c-4 -3 -7 -13 -7 -22 0 -9 -7 -29 -15 -45 -19 -36 -19
-147 -1 -201 8 -22 28 -51 45 -66 59 -49 189 -60 227 -18 16 17 13 18 -65 16
l-82 -1 -41 44 c-34 36 -42 54 -46 93 -4 38 -1 51 13 61 17 12 17 14 0 39 -12
20 -15 37 -10 67 6 37 -1 50 -18 33z"/>
<path d="M16474 13969 c-16 -17 -19 -37 -19 -108 0 -73 4 -92 25 -130 14 -24
37 -53 52 -64 35 -26 116 -34 153 -15 28 15 28 15 -34 22 -55 6 -66 12 -101
47 -46 48 -54 80 -48 190 3 43 2 79 -2 79 -4 0 -15 -9 -26 -21z"/>
<path d="M23064 13961 c-129 -6 -144 -12 -164 -61 -22 -54 13 -85 40 -35 18
33 64 45 176 45 76 0 93 3 98 16 6 16 -10 46 -23 42 -3 -1 -60 -4 -127 -7z"/>
<path d="M4411 13874 c-32 -37 -42 -70 -31 -99 5 -14 13 -25 17 -25 5 0 13
-10 18 -22 13 -29 52 -43 98 -34 45 8 46 17 8 34 -57 25 -81 51 -81 88 0 22 7
40 20 51 26 23 25 33 -3 33 -13 0 -33 -12 -46 -26z"/>
<path d="M22920 13775 c-6 -8 -10 -29 -8 -47 3 -32 4 -33 43 -30 22 2 90 4
150 5 l110 2 3 33 3 32 -108 0 c-59 0 -125 4 -145 9 -28 6 -40 5 -48 -4z"/>
<path d="M23062 13600 c-134 -7 -147 -13 -158 -68 -7 -36 7 -43 37 -16 25 23
205 29 237 8 30 -20 35 -14 36 38 1 50 12 47 -152 38z"/>
<path d="M24305 13338 c-12 -7 -101 -14 -225 -18 -113 -4 -217 -12 -231 -18
-42 -17 -89 -84 -89 -127 0 -42 28 -135 41 -135 5 0 9 28 9 63 0 79 24 121 77
137 42 13 389 9 436 -5 l28 -8 -3 58 c-3 62 -11 71 -43 53z"/>
<path d="M15914 13276 c-3 -13 -1 -41 5 -62 14 -50 14 -299 0 -325 -17 -33 -2
-59 35 -59 46 0 61 20 47 61 -6 19 -11 103 -11 201 0 98 -4 178 -10 189 -16
28 -58 25 -66 -5z"/>
<path d="M14417 13254 c-34 -33 -41 -71 -23 -115 17 -41 39 -61 86 -79 42 -16
138 -66 157 -81 15 -13 17 -53 3 -79 -12 -22 -97 -36 -160 -25 -33 6 -46 14
-62 41 -24 41 -38 43 -38 6 0 -21 10 -36 41 -59 133 -103 329 -3 272 138 -12
32 -26 44 -77 69 -35 16 -67 30 -73 30 -6 0 -34 18 -62 40 -56 44 -66 76 -31
98 23 14 27 42 6 42 -7 0 -25 -12 -39 -26z"/>
<path d="M23000 13243 c-49 -7 -78 -25 -96 -58 -15 -28 -16 -36 -5 -49 18 -21
28 -20 36 4 14 45 31 50 150 50 100 0 116 2 124 18 18 33 0 40 -94 39 -50 0
-101 -2 -115 -4z"/>
<path d="M16801 13193 c-35 -56 -36 -58 -16 -97 10 -19 15 -58 15 -122 0 -116
11 -144 56 -144 42 0 51 16 25 44 -18 19 -21 34 -21 120 0 53 5 107 11 118 8
14 8 23 0 31 -6 6 -11 25 -11 43 0 17 -7 37 -14 44 -12 9 -20 3 -45 -37z"/>
<path d="M15692 13149 c-40 -12 -37 -30 5 -41 83 -22 116 -147 55 -210 -20
-22 -35 -28 -67 -28 -70 0 -77 12 -72 115 2 50 8 102 12 117 6 23 3 29 -20 40
-54 24 -57 15 -57 -221 0 -127 4 -217 10 -223 6 -6 19 -7 31 -3 17 5 21 16 23
68 l3 62 66 3 c61 3 68 5 103 41 35 35 38 44 43 112 7 92 -16 150 -68 168 -18
6 -32 11 -33 10 -1 0 -16 -5 -34 -10z"/>
<path d="M14802 13133 c-7 -11 -5 -33 5 -66 13 -46 14 -80 1 -202 -3 -27 0
-30 28 -33 40 -4 63 21 46 49 -7 11 -12 61 -12 128 0 60 -3 116 -6 125 -8 21
-51 20 -62 -1z"/>
<path d="M14986 13135 c-12 -12 -13 -22 -6 -41 6 -14 10 -61 10 -104 0 -43 -4
-90 -10 -104 -16 -42 32 -75 60 -41 9 11 9 22 0 50 -17 51 -7 146 19 188 11
19 21 37 21 40 0 5 -57 27 -71 27 -4 0 -14 -7 -23 -15z"/>
<path d="M15123 13143 c-22 -8 -14 -23 22 -40 19 -9 38 -26 41 -37 8 -25 8
-185 0 -193 -8 -8 13 -43 26 -43 6 0 20 7 29 16 14 13 16 21 8 35 -16 31 -17
141 -1 166 38 59 -50 127 -125 96z"/>
<path d="M15301 13141 c-20 -13 -4 -31 28 -31 46 0 59 -25 62 -120 1 -47 -1
-97 -5 -111 -9 -31 12 -52 46 -47 22 3 23 7 26 103 3 112 -10 179 -42 200 -22
16 -93 20 -115 6z"/>
<path d="M16094 13126 c-3 -13 -1 -41 5 -62 13 -48 14 -128 2 -172 -6 -18 -8
-39 -5 -47 8 -20 40 -28 62 -16 18 9 19 20 14 158 -3 93 -9 151 -16 155 -24
16 -56 8 -62 -16z"/>
<path d="M16967 13144 c-12 -12 -8 -41 7 -53 8 -7 18 -27 21 -44 4 -18 15 -41
25 -52 10 -11 21 -36 25 -55 4 -19 13 -44 20 -55 7 -11 16 -37 19 -57 6 -31 4
-37 -13 -43 -11 -3 -22 -14 -26 -23 -3 -10 -20 -22 -38 -27 -40 -12 -43 -39
-4 -43 38 -5 73 20 80 56 3 17 18 42 32 56 14 14 25 36 25 48 0 13 6 32 14 43
7 11 17 39 21 63 5 34 4 42 -8 42 -9 0 -21 -16 -27 -36 -12 -35 -27 -40 -42
-13 -22 41 -48 109 -55 149 -8 40 -12 45 -39 48 -16 2 -33 0 -37 -4z"/>
<path d="M16313 13130 c-27 -11 -37 -30 -51 -95 -16 -70 2 -132 50 -179 31
-31 44 -36 82 -36 38 0 51 5 81 34 19 19 35 39 35 45 0 16 -36 13 -50 -4 -18
-21 -93 -20 -113 3 -28 31 -40 99 -27 153 7 26 18 53 26 60 30 25 11 37 -33
19z"/>
<path d="M16604 13103 c16 -98 18 -184 6 -213 -16 -38 -1 -60 41 -60 35 0 52
26 36 55 -7 12 -12 66 -12 135 l0 115 -39 3 -38 3 6 -38z"/>
<path d="M22900 13064 c-19 -7 -59 -13 -88 -13 -45 -1 -54 -4 -61 -23 -16 -44
-4 -51 68 -43 55 6 282 7 371 2 21 -2 25 2 25 28 l0 30 -115 6 c-63 3 -126 10
-140 16 -17 6 -36 5 -60 -3z"/>
<path d="M23802 12951 c-35 -33 -41 -64 -16 -99 19 -27 38 -28 92 -2 39 19 58
21 235 17 106 -1 202 -7 215 -11 21 -8 22 -6 22 54 0 60 -1 62 -22 55 -13 -5
-107 -10 -209 -12 -154 -4 -193 -2 -224 11 -50 21 -55 21 -93 -13z"/>
<path d="M22747 12784 c-4 -4 -7 -33 -7 -64 0 -52 4 -62 48 -121 61 -83 102
-104 202 -104 136 0 230 67 230 165 0 52 -13 51 -34 -2 -14 -36 -25 -47 -74
-72 -51 -25 -67 -28 -128 -24 -68 4 -128 26 -182 67 -20 15 -24 27 -25 86 -2
63 -12 86 -30 69z"/>
<path d="M23950 12671 c-14 -3 -37 -14 -52 -23 -16 -10 -39 -25 -53 -33 -28
-17 -80 -119 -71 -140 8 -23 25 -18 32 10 3 14 30 46 60 71 50 43 59 47 131
55 82 10 195 3 226 -13 10 -5 37 -28 60 -51 40 -40 41 -42 41 -113 1 -77 5
-69 -74 -151 -37 -38 -80 -47 -225 -48 -129 0 -194 25 -216 83 -5 12 -13 22
-19 22 -32 0 19 -102 73 -143 22 -17 62 -31 119 -42 80 -16 91 -16 169 0 93
18 120 37 170 114 27 41 29 53 29 137 0 77 -4 100 -23 138 -26 52 -96 112
-147 126 -38 11 -189 12 -230 1z"/>
<path d="M12867 12403 c-13 -12 -7 -46 11 -66 16 -18 17 -57 17 -517 l0 -498
-24 -26 c-14 -14 -21 -31 -18 -40 14 -36 629 -11 708 28 16 8 43 18 61 21 18
4 44 19 59 34 15 14 39 38 55 52 38 34 82 100 113 169 24 53 25 62 26 270 0
189 -2 218 -17 240 -10 13 -18 34 -18 46 0 11 -9 29 -21 40 -12 10 -29 35 -39
54 -40 77 -164 155 -269 167 -31 3 -73 12 -95 20 -28 9 -105 13 -291 13 -138
0 -255 -3 -258 -7z m524 -99 c81 -15 189 -57 189 -73 0 -5 17 -28 38 -52 102
-117 136 -325 88 -539 -28 -125 -98 -215 -210 -270 l-70 -33 -170 2 c-141 2
-174 5 -188 18 -17 15 -18 47 -18 459 0 243 3 450 6 459 4 10 21 23 38 31 43
18 195 18 297 -2z"/>
<path d="M15502 12291 c-27 -25 -32 -37 -33 -78 -2 -79 -10 -95 -69 -131 -65
-39 -83 -68 -55 -88 10 -8 29 -14 41 -14 12 0 26 -6 32 -12 6 -8 12 -129 15
-308 5 -339 12 -381 73 -406 18 -7 35 -18 39 -24 8 -13 82 -13 91 1 3 6 25 19
49 29 42 18 60 46 45 71 -6 8 -27 12 -63 10 -50 -2 -57 1 -81 29 l-26 32 0
278 c0 219 3 280 13 289 8 6 45 14 83 18 68 8 69 8 69 38 l0 30 -70 5 c-38 3
-76 9 -82 13 -9 6 -13 39 -13 105 0 96 -6 142 -19 142 -4 0 -21 -13 -39 -29z"/>
<path d="M23174 12173 c18 -70 17 -78 -6 -113 l-24 -35 -102 -3 c-82 -2 -102
-6 -102 -18 0 -15 28 -29 89 -43 50 -11 139 12 171 45 22 22 25 32 25 100 -1
76 -9 93 -44 94 -10 0 -11 -8 -7 -27z"/>
<path d="M14745 12062 c-22 -4 -51 -19 -65 -32 -14 -14 -37 -34 -52 -45 -15
-11 -47 -57 -72 -101 -42 -77 -45 -87 -51 -185 -10 -147 5 -245 44 -302 45
-66 85 -102 138 -127 27 -12 62 -29 78 -38 35 -19 156 -22 177 -5 7 6 40 21
72 33 69 26 138 92 167 158 34 78 -14 108 -68 44 -13 -15 -23 -32 -23 -39 0
-7 -21 -27 -47 -45 -46 -31 -53 -33 -138 -33 -81 0 -95 3 -140 29 -64 36 -110
105 -131 192 -15 65 -15 67 7 90 l22 24 257 0 c245 0 258 1 275 20 18 19 18
23 0 101 -12 51 -29 94 -46 117 -61 81 -71 92 -82 92 -6 0 -23 12 -38 26 -26
25 -35 27 -136 30 -59 1 -126 0 -148 -4z m196 -83 c25 -6 45 -21 62 -47 51
-73 60 -129 27 -162 -18 -18 -33 -20 -195 -20 -168 0 -175 1 -186 21 -20 39
-5 103 35 153 59 71 135 87 257 55z"/>
<path d="M14165 12051 c-11 -3 -37 -17 -57 -30 -33 -20 -38 -28 -38 -61 0 -23
6 -43 17 -51 37 -32 43 -71 43 -307 l0 -229 -31 -42 c-29 -40 -29 -44 -14 -67
15 -23 21 -24 110 -24 89 0 95 1 114 26 22 28 21 37 -17 109 l-27 50 -3 305
c-2 192 -7 310 -14 317 -11 14 -50 16 -83 4z"/>
<path d="M24300 12003 c-8 -3 -23 -13 -34 -22 -15 -13 -55 -17 -250 -21 l-231
-5 -3 -33 c-2 -19 4 -44 13 -59 14 -20 22 -24 46 -19 15 3 38 15 49 26 18 18
32 20 187 20 164 0 168 0 205 -26 58 -40 69 -29 66 63 -3 80 -10 90 -48 76z"/>
<path d="M23179 11886 c-3 -3 -96 -7 -207 -8 -167 -3 -204 -6 -212 -18 -29
-46 9 -79 68 -58 34 12 221 15 347 6 l40 -3 0 40 c0 28 -5 41 -15 43 -9 1 -18
0 -21 -2z"/>
<path d="M24302 11688 c-7 -7 -12 -20 -12 -29 0 -10 -12 -31 -26 -48 l-26 -31
-198 0 -199 0 -20 29 c-12 16 -21 36 -21 44 0 9 -4 19 -10 22 -5 3 -10 -2 -10
-12 0 -11 -15 -33 -33 -51 -26 -26 -41 -32 -74 -32 -58 0 -61 -15 -7 -34 25
-8 58 -29 74 -46 34 -37 49 -38 80 -5 23 25 26 25 186 25 180 0 311 18 332 47
13 18 16 90 6 117 -7 19 -25 21 -42 4z"/>
<path d="M23128 11622 c-23 -3 -28 -8 -28 -31 0 -38 -14 -48 -93 -63 -72 -14
-115 -44 -104 -72 8 -21 45 -20 89 3 20 10 50 21 67 24 16 3 41 18 55 32 14
14 34 25 45 25 11 0 31 4 45 10 25 9 25 10 8 39 -17 31 -37 38 -84 33z"/>
<path d="M23183 11357 c-29 -37 -56 -47 -132 -47 -60 0 -74 3 -100 26 -39 32
-74 27 -96 -15 -14 -28 -14 -31 12 -51 20 -16 36 -20 58 -16 16 4 82 10 146
14 130 8 149 17 149 68 0 42 -14 50 -37 21z"/>
<path d="M24280 11315 l-23 -25 -231 0 c-127 0 -237 -4 -245 -9 -14 -9 -10
-62 9 -91 12 -20 85 -17 109 4 15 13 44 16 181 16 146 0 168 -2 208 -21 28
-14 47 -18 53 -12 6 6 9 43 7 84 -3 66 -5 74 -23 77 -12 2 -31 -8 -45 -23z"/>
<path d="M23074 11132 c-17 -20 -34 -50 -38 -66 -7 -29 -50 -79 -75 -87 -25
-9 -2 -29 32 -29 40 0 93 54 102 104 5 25 15 38 38 49 30 15 57 13 57 -4 0 -5
5 -9 10 -9 6 0 10 13 10 30 0 34 -23 50 -72 50 -26 0 -40 -8 -64 -38z"/>
<path d="M23830 10855 c0 -8 -11 -22 -26 -31 -18 -12 -24 -24 -22 -42 5 -40
30 -49 85 -29 65 23 375 25 429 2 20 -8 40 -12 45 -9 5 3 9 29 9 59 0 30 -4
56 -9 59 -5 3 -25 -1 -45 -9 -49 -21 -300 -21 -379 0 -72 19 -87 19 -87 0z"/>
<path d="M23160 10838 c0 -2 6 -24 14 -49 18 -60 11 -93 -29 -124 -27 -20 -45
-25 -92 -25 -61 0 -103 -8 -103 -19 1 -32 86 -50 173 -37 37 6 51 14 74 44 25
33 28 45 27 106 0 60 -4 71 -25 87 -21 16 -39 24 -39 17z"/>
<path d="M24294 10585 c6 -24 -14 -70 -39 -87 -5 -4 -101 -8 -212 -8 -185 0
-205 2 -222 19 -10 10 -21 25 -23 32 -4 10 -14 6 -37 -16 -27 -25 -43 -31 -97
-35 -35 -3 -65 -9 -65 -15 -1 -5 20 -14 47 -18 37 -6 56 -16 79 -43 34 -38 59
-43 88 -16 17 15 48 18 246 22 220 5 227 6 259 29 23 18 32 33 33 55 3 79 -8
106 -43 106 -17 0 -19 -5 -14 -25z"/>
<path d="M22752 10571 c-9 -5 -12 -25 -10 -57 3 -46 5 -49 39 -59 19 -5 51
-23 69 -39 30 -25 38 -27 75 -20 22 4 92 9 155 10 63 1 121 3 128 3 7 1 12 15
12 37 0 36 -1 36 -32 30 -18 -4 -72 -9 -120 -13 -77 -5 -91 -3 -121 16 -43 27
-49 26 -85 -4 l-29 -24 -28 29 c-21 21 -26 35 -21 53 7 28 -12 50 -32 38z"/>
<path d="M23140 10289 c-25 -6 -77 -7 -117 -4 -78 7 -113 -4 -113 -34 0 -35
27 -46 76 -33 51 14 124 15 175 3 48 -11 61 -2 57 40 -3 38 -12 41 -78 28z"/>
<path d="M24274 10205 c-15 -12 -63 -14 -250 -15 l-232 0 -16 -24 c-12 -20
-13 -31 -5 -55 13 -35 20 -37 55 -14 53 34 385 26 406 -11 11 -20 37 -21 45
-1 3 9 21 22 39 30 28 11 34 19 34 44 0 30 -22 61 -44 61 -7 0 -21 -7 -32 -15z"/>
<path d="M23186 10113 c-3 -4 -3 -42 0 -84 9 -105 -3 -135 -59 -145 -23 -3
-118 -5 -212 -3 -164 4 -170 3 -173 -16 -5 -42 4 -44 243 -46 l230 -3 3 146
c2 119 0 147 -12 151 -8 3 -17 3 -20 0z"/>
<path d="M24295 10030 c-4 -6 -1 -18 6 -26 7 -8 13 -36 13 -62 0 -42 -4 -52
-42 -92 l-42 -45 -221 -2 c-137 -1 -225 -5 -233 -12 -15 -13 -9 -71 8 -77 7
-3 26 2 42 11 23 12 69 15 227 15 175 0 202 2 236 19 20 11 44 27 52 37 20 25
18 159 -4 201 -20 37 -33 48 -42 33z"/>
<path d="M23514 9486 c-3 -8 -4 -25 -2 -38 2 -18 8 -22 28 -20 50 7 542 14
565 8 28 -7 38 -31 25 -56 -11 -21 -128 -117 -172 -142 -17 -9 -42 -27 -57
-40 -14 -13 -46 -37 -70 -54 -54 -36 -93 -64 -146 -104 -22 -16 -62 -45 -90
-64 -60 -41 -85 -80 -85 -135 0 -46 8 -49 63 -26 53 22 712 22 743 0 12 -8 24
-11 28 -8 9 10 7 101 -3 107 -5 3 -25 -1 -45 -9 -47 -20 -565 -22 -584 -3 -24
24 -12 48 41 82 28 18 60 43 70 54 10 11 32 26 48 32 16 7 29 16 29 19 0 4 38
34 85 67 139 96 148 103 187 137 20 18 58 48 83 67 100 77 98 75 90 99 -7 23
-8 23 -124 18 -242 -12 -588 -7 -632 8 -52 19 -68 19 -75 1z"/>
<path d="M25787 3833 c-2 -4 -5 -104 -5 -220 l-1 -213 26 0 c25 0 25 1 23 68
-4 103 -2 120 20 142 27 27 66 25 94 -5 13 -14 27 -25 32 -25 10 0 44 51 44
65 0 4 -21 6 -47 5 -87 -4 -113 0 -134 21 -21 21 -21 27 -7 139 2 19 -2 26
-19 28 -11 2 -23 0 -26 -5z"/>
<path d="M27707 3133 c-44 -31 -47 -58 -17 -124 18 -40 20 -66 20 -269 0 -167
-4 -239 -15 -280 -18 -68 -18 -65 1 -84 23 -24 99 -21 124 4 24 24 25 39 5
104 -12 39 -15 110 -15 333 0 280 -4 315 -34 335 -18 12 -29 9 -69 -19z"/>
<path d="M27998 3139 c-24 -18 -28 -28 -28 -70 0 -28 7 -63 15 -80 13 -24 15
-68 12 -262 -2 -155 -7 -246 -16 -274 -7 -23 -10 -54 -7 -68 6 -23 11 -25 64
-25 45 0 63 5 80 20 27 26 28 46 2 85 -19 28 -20 47 -20 331 0 331 -4 364 -48
364 -15 0 -39 -10 -54 -21z"/>
<path d="M25993 3140 c-30 -12 -29 -34 1 -73 14 -18 34 -68 46 -112 12 -44 28
-90 35 -101 13 -20 34 -90 69 -230 8 -28 21 -62 30 -76 9 -14 21 -52 26 -84
10 -61 34 -94 70 -94 26 0 56 47 64 100 4 25 15 60 26 77 10 17 22 53 26 79 4
27 15 67 24 89 10 23 21 56 25 75 8 40 45 100 61 100 13 0 34 -43 34 -71 0
-11 9 -41 19 -67 11 -26 22 -69 25 -95 3 -27 15 -61 26 -77 11 -15 20 -37 20
-47 0 -25 37 -132 51 -149 14 -17 53 -18 67 -1 5 6 17 37 25 67 9 30 31 98 50
150 19 53 37 113 41 135 4 21 19 60 32 87 13 26 24 56 24 67 0 37 43 155 68
190 l25 34 -22 19 c-30 24 -62 23 -94 -2 -21 -17 -25 -27 -21 -53 3 -17 1 -50
-4 -72 -28 -115 -66 -241 -77 -259 -7 -12 -19 -47 -26 -79 -14 -65 -25 -78
-56 -66 -22 8 -43 60 -43 107 0 13 -6 35 -14 50 -7 15 -18 50 -24 78 -6 29
-21 67 -32 87 -16 26 -21 56 -24 119 -1 46 -6 89 -10 96 -10 16 -138 16 -154
0 -8 -8 -10 -38 -6 -97 8 -108 -9 -233 -36 -271 -11 -15 -20 -39 -20 -52 0
-12 -11 -47 -25 -76 -30 -65 -55 -68 -69 -7 -4 22 -16 65 -27 95 -10 30 -21
71 -25 90 -3 19 -14 49 -25 66 -21 35 -44 164 -35 200 13 51 -69 83 -141 54z"/>
<path d="M29570 2915 c-42 -10 -63 -23 -93 -55 -38 -41 -39 -43 -35 -102 5
-67 18 -83 94 -119 23 -10 47 -25 53 -33 7 -8 27 -18 44 -22 18 -3 49 -15 70
-25 34 -18 37 -23 37 -62 0 -24 -6 -51 -13 -61 -16 -22 -115 -46 -143 -35 -22
8 -84 80 -84 97 0 5 -7 15 -15 22 -24 20 -45 -5 -45 -55 0 -61 22 -83 95 -95
33 -5 74 -17 92 -27 31 -17 33 -16 95 15 35 17 71 38 81 46 39 31 49 141 17
194 -21 33 -74 72 -100 72 -8 0 -36 11 -62 25 -26 14 -54 25 -62 25 -29 0 -76
50 -76 81 0 25 6 33 35 45 74 31 159 11 181 -42 15 -35 42 -44 73 -25 13 8 13
15 1 50 -21 66 -45 80 -160 96 -14 2 -50 -2 -80 -10z"/>
<path d="M30091 2913 c-107 -22 -161 -98 -131 -187 14 -43 117 -116 207 -146
89 -29 126 -87 85 -136 -30 -35 -120 -56 -167 -38 -9 4 -31 31 -50 60 -47 73
-85 72 -85 -2 0 -54 47 -94 112 -94 18 -1 44 -7 58 -15 14 -8 39 -14 55 -15
37 0 113 36 154 73 29 25 31 32 31 95 0 67 -1 69 -42 109 -24 23 -56 45 -73
49 -16 3 -46 15 -65 25 -19 10 -56 27 -82 38 -89 37 -91 112 -3 125 77 12 120
0 158 -45 19 -21 42 -39 52 -39 16 0 17 7 12 56 -3 31 -10 61 -16 67 -5 5 -40
15 -78 21 -54 10 -82 9 -132 -1z"/>
<path d="M27259 2906 c-27 -6 -66 -28 -96 -53 -45 -38 -51 -49 -66 -111 -19
-78 -22 -150 -7 -184 5 -13 14 -42 20 -65 14 -58 54 -102 117 -130 80 -35 103
-32 232 30 24 12 52 35 63 52 41 66 -5 117 -50 56 -26 -36 -93 -71 -134 -71
-16 0 -52 15 -81 33 -47 30 -54 40 -67 88 -16 60 -16 89 3 101 6 4 83 8 170 8
90 0 167 4 178 10 24 13 24 32 -1 106 -40 117 -142 165 -281 130z m129 -65
c28 -14 41 -29 49 -55 18 -58 2 -66 -125 -66 -134 0 -142 4 -121 62 26 73 117
100 197 59z"/>
<path d="M28480 2908 c-25 -5 -52 -16 -61 -24 -22 -19 -42 -18 -73 7 -19 15
-34 19 -55 14 -50 -11 -56 -26 -36 -100 15 -55 17 -93 13 -249 -7 -205 -9
-196 62 -196 47 0 62 19 49 64 -5 17 -9 96 -9 176 0 138 1 148 23 178 38 51
71 72 114 72 85 0 114 -52 121 -222 4 -92 1 -131 -12 -178 -14 -48 -15 -64 -5
-76 14 -17 93 -19 107 -1 7 8 8 82 3 222 -6 185 -9 215 -27 245 -37 64 -120
90 -214 68z"/>
<path d="M29028 2907 c-25 -7 -57 -22 -70 -34 -14 -13 -29 -23 -35 -23 -21 0
-41 -38 -57 -107 -20 -91 -20 -135 0 -214 25 -99 46 -125 132 -165 60 -27 97
-30 144 -10 18 8 48 20 67 27 54 20 101 73 101 114 0 44 -18 45 -65 4 -43 -38
-102 -69 -131 -69 -25 0 -116 43 -132 62 -5 7 -18 39 -28 70 -17 56 -17 58 1
78 17 18 30 20 177 20 91 0 168 4 179 10 53 29 -16 183 -103 231 -28 15 -130
19 -180 6z m109 -55 c60 -18 103 -93 68 -119 -25 -18 -224 -18 -248 0 -17 11
-16 15 2 53 11 22 26 45 33 51 23 19 102 27 145 15z"/>
</g>
</svg>
